<svg width="36" height="36" viewBox="0 0 36 36" fill="none" xmlns="http://www.w3.org/2000/svg">
<path d="M27.6515 36.0031C21.2201 36.0031 14.4325 32.8122 8.77045 27.0724C3.52908 21.7516 0.417611 15.412 0.0158866 9.22241C-0.131918 6.95416 0.758698 4.70898 2.39212 3.20963C3.74889 1.96787 5.13219 1.11439 6.5079 0.679963C8.02385 0.199403 9.69517 0.833743 10.5744 2.22929C12.5224 5.3241 13.7086 8.21515 14.1975 11.0639C14.387 12.1788 14.0383 13.3437 13.2652 14.1856L11.3854 16.2232C11.249 16.3732 11.2339 16.6 11.3475 16.773C12.3329 18.2877 13.4774 19.7102 14.7546 21.0058C16.4335 22.705 18.3019 24.1582 20.3105 25.3231C20.4621 25.4077 20.6592 25.3769 20.7956 25.2501L22.539 23.5931C23.369 22.805 24.5211 22.4513 25.6201 22.6435C28.4284 23.1433 31.2746 24.3428 34.3216 26.315C35.7049 27.2108 36.3303 28.9216 35.8414 30.4786C35.6405 31.1091 35.3601 31.7472 35 32.3739C33.8479 34.3807 31.7483 35.7032 29.3872 35.9224C28.815 35.9762 28.2351 35.9992 27.6553 35.9992L27.6515 36.0031ZM7.52738 2.44458C7.37578 2.44458 7.22419 2.46765 7.07638 2.51378C5.96596 2.86748 4.81763 3.58255 3.66551 4.63594C2.45655 5.74315 1.80091 7.41166 1.91081 9.09554C2.28222 14.82 5.19662 20.7251 10.1158 25.7153C15.8878 31.5704 22.8497 34.596 29.2167 34.0117C30.9676 33.8502 32.5177 32.8775 33.3628 31.4089C33.6546 30.9053 33.8782 30.394 34.0374 29.898C34.2648 29.1714 33.9654 28.3679 33.306 27.9412C30.4749 26.1074 27.8561 24.9963 25.298 24.5427C24.7788 24.4504 24.2368 24.6234 23.8389 25.0002L22.0956 26.6571C21.3565 27.3568 20.2423 27.4952 19.3745 26.9955C17.218 25.746 15.217 24.189 13.4206 22.3667C12.0525 20.9788 10.8283 19.4564 9.77097 17.8341C9.17217 16.9152 9.27071 15.7119 10.0059 14.9122L11.8857 12.8747C12.2571 12.471 12.4239 11.9212 12.3329 11.3984C11.8857 8.80336 10.7904 6.14682 8.97889 3.2673C8.65675 2.75214 8.09206 2.44843 7.52738 2.44843V2.44458Z" fill="#3B6552"/>
<path d="M35.0521 19.2225C34.5291 19.2225 34.1046 18.792 34.1046 18.2614C34.1046 9.2538 26.8774 1.92236 17.9978 1.92236C17.4748 1.92236 17.0503 1.49178 17.0503 0.961243C17.0503 0.430704 17.4748 0.00012207 17.9978 0.00012207C27.9234 0.00012207 35.9996 8.19272 35.9996 18.2614C35.9996 18.792 35.5751 19.2225 35.0521 19.2225Z" fill="#3B6552"/>
<path d="M28.8898 19.2225C28.3668 19.2225 27.9423 18.7919 27.9423 18.2614C27.9423 12.6984 23.4817 8.17346 17.9978 8.17346C17.4748 8.17346 17.0503 7.74288 17.0503 7.21234C17.0503 6.6818 17.4748 6.25122 17.9978 6.25122C24.5239 6.25122 29.8373 11.6373 29.8373 18.2614C29.8373 18.7919 29.4128 19.2225 28.8898 19.2225Z" fill="#3B6552"/>
</svg>
