<svg width="53" height="43" viewBox="0 0 53 43" fill="none" xmlns="http://www.w3.org/2000/svg">
<g filter="url(#filter0_d_716874_1856)">
<path fill-rule="evenodd" clip-rule="evenodd" d="M26.5 1C38.3721 1 48 8.7096 48 18.2169C48 21.5348 46.8297 24.6355 44.7907 27.2657C44.6942 27.4105 44.5615 27.5794 44.3925 27.7604H44.3805C43.6807 28.6049 42.9085 29.3892 42.0398 30.101C36.0918 35.5906 26.307 42.142 25.016 41.1285C23.8939 40.2478 26.862 35.9646 23.4355 35.2407C23.1942 35.2166 22.9529 35.1804 22.7236 35.1563C12.6493 33.7326 5 26.6866 5 18.2169C5 8.7096 14.6279 1 26.5 1Z" stroke="#456453" stroke-width="2" stroke-linecap="round" stroke-linejoin="round"/>
<path fill-rule="evenodd" clip-rule="evenodd" d="M14.0252 23.7066H18.3566C18.9719 23.7066 19.4787 23.1999 19.4787 22.5845V22.488C19.4787 21.8727 18.9719 21.366 18.3566 21.366H15.2317V14.2596C15.2317 13.6443 14.725 13.1376 14.1097 13.1376H14.0132C13.3978 13.1376 12.8911 13.6443 12.8911 14.2596V22.5725C12.8911 23.1878 13.3978 23.6945 14.0132 23.6945L14.0252 23.7066ZM40.8942 18.4945V18.398C40.8942 17.7826 40.3875 17.2759 39.7721 17.2759H36.6473V15.5023H39.7721C40.3875 15.5023 40.8942 14.9956 40.8942 14.3803V14.2838C40.8942 13.6684 40.3875 13.1617 39.7721 13.1617H35.4408C34.8255 13.1617 34.3187 13.6684 34.3187 14.2838V22.5966C34.3187 23.2119 34.8255 23.7187 35.4408 23.7187H39.7721C40.3875 23.7187 40.8942 23.2119 40.8942 22.5966V22.5001C40.8942 21.8848 40.3875 21.378 39.7721 21.378H36.6473V19.6045H39.7721C40.3875 19.6045 40.8942 19.0977 40.8942 18.4824V18.4945ZM32.5572 23.3688C32.7623 23.1637 32.883 22.8741 32.883 22.5845V14.2717C32.883 13.6564 32.3762 13.1496 31.7609 13.1496H31.6644C31.0491 13.1496 30.5423 13.6564 30.5423 14.2717V19.1581L26.4885 13.7288C26.2954 13.3909 25.9335 13.1617 25.5112 13.1617H25.4147C24.7994 13.1617 24.2926 13.6684 24.2926 14.2838V22.5966C24.2926 23.2119 24.7994 23.7187 25.4147 23.7187H25.5112C26.1265 23.7187 26.6333 23.2119 26.6333 22.5966V17.6258L30.7113 23.1999C30.7113 23.1999 30.7595 23.2723 30.7957 23.3084C30.9043 23.4653 31.0611 23.5618 31.2301 23.6342C31.3628 23.6825 31.5076 23.7187 31.6523 23.7187H31.7489C31.9298 23.7187 32.1108 23.6704 32.2677 23.5859C32.3762 23.5377 32.4728 23.4653 32.5452 23.3808L32.5572 23.3688ZM21.5177 23.7066H21.6142C22.2295 23.7066 22.7362 23.1999 22.7362 22.5845V14.2717C22.7362 13.6564 22.2295 13.1496 21.6142 13.1496H21.5177C20.9023 13.1496 20.3956 13.6564 20.3956 14.2717V22.5845C20.3956 23.1999 20.9023 23.7066 21.5177 23.7066Z" fill="#456453"/>
</g>
<defs>
<filter id="filter0_d_716874_1856" x="0" y="0" width="53" height="44" filterUnits="userSpaceOnUse" color-interpolation-filters="sRGB">
<feFlood flood-opacity="0" result="BackgroundImageFix"/>
<feColorMatrix in="SourceAlpha" type="matrix" values="0 0 0 0 0 0 0 0 0 0 0 0 0 0 0 0 0 0 127 0" result="hardAlpha"/>
<feOffset dy="4"/>
<feGaussianBlur stdDeviation="2"/>
<feComposite in2="hardAlpha" operator="out"/>
<feColorMatrix type="matrix" values="0 0 0 0 0 0 0 0 0 0 0 0 0 0 0 0 0 0 0.25 0"/>
<feBlend mode="normal" in2="BackgroundImageFix" result="effect1_dropShadow_716874_1856"/>
<feBlend mode="normal" in="SourceGraphic" in2="effect1_dropShadow_716874_1856" result="shape"/>
</filter>
</defs>
</svg>
