<svg width="40" height="36" viewBox="0 0 40 36" fill="none" xmlns="http://www.w3.org/2000/svg">
<path d="M1.38706 23.6812H6.89134C2.79513 25.7293 0.258277 29.7208 0.258277 34.1544C0.258277 34.7596 0.78194 35.2832 1.38706 35.2832H23.6951C24.2886 35.2832 24.8239 34.7596 24.8239 34.1544C24.8239 29.7091 22.287 25.7293 18.1908 23.6812C19.308 22.3429 19.9131 20.6905 19.9131 18.9915C19.9131 17.4205 19.4243 15.931 18.4817 14.6509C19.2265 14.1622 20.0178 13.7782 20.844 13.4989C21.2281 13.3709 21.5306 13.0101 21.6004 12.6145C21.6703 12.2188 21.4957 11.7766 21.1582 11.5322C19.7967 10.5547 19.0287 9.04191 19.0287 7.38946C19.0287 4.56168 21.3212 2.26921 24.1489 2.26921C26.9767 2.26921 29.2692 4.56168 29.2692 7.38946C29.2692 9.04191 28.4895 10.5547 27.128 11.5439C26.8022 11.7882 26.6276 12.2188 26.6858 12.6261C26.7556 13.0334 27.0465 13.3825 27.4422 13.5105C31.0729 14.7207 33.6563 17.8162 34.0985 21.4353H21.8099C21.5306 21.4469 21.2397 21.5865 21.0419 21.8076C20.8324 22.0287 20.7277 22.3313 20.7393 22.6106C20.7626 23.2157 21.3212 23.6928 21.903 23.6812H38.8697C39.149 23.6812 39.4399 23.5648 39.6494 23.3437C39.8705 23.1226 39.9985 22.8433 39.9985 22.5524C39.9985 22.2615 39.8705 21.9822 39.6494 21.7611C39.4283 21.54 39.149 21.4236 38.858 21.4236H36.3677C35.9721 17.4671 33.4818 13.9294 29.7812 12.0675C30.8984 10.7409 31.5035 9.07682 31.5035 7.37783C31.5035 3.31653 28.1986 0 24.1257 0C20.0527 0 16.7595 3.30489 16.7595 7.37783C16.7595 9.08846 17.3762 10.7525 18.4934 12.0792C17.8766 12.3817 17.3413 12.6959 16.8526 13.0217C15.5725 12.0908 14.083 11.602 12.5236 11.602C8.46233 11.602 5.15743 14.9069 5.15743 18.9682C5.15743 19.8061 5.29708 20.6323 5.57636 21.412H1.27069C0.991406 21.4236 0.700482 21.5633 0.502654 21.7844C0.293189 22.0055 0.188456 22.308 0.200093 22.5873C0.223367 23.1924 0.781941 23.6696 1.36379 23.6579L1.38706 23.6812ZM15.526 23.1343C15.2001 23.3786 15.0256 23.8092 15.0838 24.2165C15.1536 24.6238 15.4445 24.9729 15.8402 25.1009C19.4476 26.2995 22.031 29.3949 22.4732 33.0257H2.60894C3.05115 29.3949 5.63455 26.2995 9.242 25.1009C9.62602 24.9729 9.92858 24.6122 9.99841 24.2165C10.0682 23.8208 9.89367 23.3786 9.5562 23.1343C8.19468 22.1568 7.42664 20.644 7.42664 18.9915C7.42664 16.1637 9.71912 13.8712 12.5469 13.8712C15.3747 13.8712 17.6672 16.1637 17.6672 18.9915C17.6672 20.644 16.8875 22.1568 15.526 23.1459V23.1343Z" fill="#3B6552"/>
</svg>
