<svg width="50" height="30" viewBox="0 0 50 30" fill="none" xmlns="http://www.w3.org/2000/svg">
<path d="M41.9593 24.4842H47.4995C48.8677 24.4842 48.3743 21.8262 48.3743 21.8262V13.1682C48.3743 11.2729 46.8827 4.27466 46.8827 4.27466H10.7926C10.7926 4.27466 2.44856 11.1159 1.8878 12.8318C1.32705 14.5477 0.699004 17.5084 1.15882 18.3271V23.1384C1.15882 23.1384 1.8878 24.4394 3.18875 24.4394H7.47291" stroke="#456453" stroke-width="1.8" stroke-linecap="round" stroke-linejoin="round"/>
<path d="M33.4258 24.5188H15.291" stroke="#456453" stroke-width="1.8" stroke-linecap="round" stroke-linejoin="round"/>
<path d="M37.7111 28.6898C35.6671 28.6898 34.0102 27.0328 34.0102 24.9888C34.0102 22.9448 35.6671 21.2878 37.7111 21.2878C39.7551 21.2878 41.4121 22.9448 41.4121 24.9888C41.4121 27.0328 39.7551 28.6898 37.7111 28.6898Z" stroke="#456453" stroke-width="1.8" stroke-linecap="round" stroke-linejoin="round"/>
<path d="M11.3425 28.6898C9.29849 28.6898 7.64151 27.0328 7.64151 24.9888C7.64151 22.9448 9.29849 21.2878 11.3425 21.2878C13.3865 21.2878 15.0435 22.9448 15.0435 24.9888C15.0435 27.0328 13.3865 28.6898 11.3425 28.6898Z" stroke="#456453" stroke-width="1.8" stroke-linecap="round" stroke-linejoin="round"/>
<path d="M17.4883 5.00415L15.0434 11.6098L2.78532 11.9799" stroke="#456453" stroke-width="1.8" stroke-linecap="round" stroke-linejoin="round"/>
<path d="M21.3138 5.4405L22.5026 11.6088H34.7271V5.1377" stroke="#456453" stroke-width="1.8" stroke-linecap="round" stroke-linejoin="round"/>
<path d="M48.0972 18.1927H1.45368" stroke="#456453" stroke-width="1.8" stroke-linecap="round" stroke-linejoin="round"/>
<path d="M46.4238 1H18.0833" stroke="#456453" stroke-width="1.8" stroke-linecap="round" stroke-linejoin="round"/>
<path d="M20.1343 1.52795V3.55788" stroke="#456453" stroke-width="1.8" stroke-linecap="round" stroke-linejoin="round"/>
<path d="M44.6846 1.52795V3.55788" stroke="#456453" stroke-width="1.8" stroke-linecap="round" stroke-linejoin="round"/>
<path d="M37.2632 1.52795V3.55788" stroke="#456453" stroke-width="1.8" stroke-linecap="round" stroke-linejoin="round"/>
<path d="M27.9761 1.52795V3.55788" stroke="#456453" stroke-width="1.8" stroke-linecap="round" stroke-linejoin="round"/>
<path d="M13.4531 14.6267L10.7054 14.7052" stroke="#456453" stroke-width="1.8" stroke-linecap="round" stroke-linejoin="round"/>
<path d="M6.25098 12.4275L5.20797 17.7771" stroke="#456453" stroke-width="1.8" stroke-linecap="round" stroke-linejoin="round"/>
<path d="M47.9293 11.4069H44.9125V21.635H48.3779" stroke="#456453" stroke-width="1.8" stroke-linecap="round" stroke-linejoin="round"/>
</svg>
