<svg width="68" height="68" viewBox="0 0 68 68" fill="none" xmlns="http://www.w3.org/2000/svg">
<g clip-path="url(#clip0_715451_4433)">
<path d="M49.4951 16.5896L17.0122 49.0724C16.3904 49.6942 16.3904 50.6891 17.0122 51.3109C17.3107 51.6094 17.7335 51.7835 18.1315 51.7835C18.5294 51.7835 18.9523 51.6343 19.2507 51.3109L51.7335 18.8281C52.3553 18.2063 52.3553 17.2114 51.7335 16.5896C51.1117 15.9678 50.1169 15.9678 49.4951 16.5896Z" fill="#3B6552"/>
<path d="M9.42666 26.9114C10.0485 26.8368 13.829 26.9612 17.336 27.1353L23.2306 33.0299L7.03895 49.2216L4.30304 51.9575C2.98482 53.2757 2.26353 55.0416 2.26353 56.907C2.26353 58.7724 2.98482 60.5383 4.30304 61.8566L6.49177 64.0453C7.80998 65.3635 9.57589 66.0848 11.4413 66.0848C13.3067 66.0848 15.0726 65.3635 16.3908 64.0453L19.1516 61.2845L35.3433 45.0928L40.9146 50.6642C41.0887 54.1711 41.2131 57.9268 41.1384 58.5486C40.9395 59.5186 40.7405 60.5135 50.4903 67.7015C50.7639 67.9005 51.0872 68.0248 51.4354 68.0248H54.9175C55.4896 68.0248 56.0119 67.7263 56.2855 67.2289C56.5591 66.7315 56.5591 66.1345 56.2855 65.6371L52.679 59.5683C52.5547 59.1206 52.0572 56.9817 54.6688 55.1411C57.6286 53.0519 58.9468 54.1214 59.9417 55.2655C60.8122 56.2852 63.0507 60.0658 63.8466 61.4337C64.1202 61.9063 64.6176 62.2048 65.1648 62.2296C65.712 62.2296 66.2094 62.0058 66.5327 61.5581C66.6571 61.3591 69.8158 56.6583 66.7068 48.6495C64.2943 42.4315 61.0858 41.5362 60.6132 41.4367L51.6344 40.1682L46.0133 34.5223L62.8766 17.6591C63.0009 17.5347 63.1004 17.3855 63.175 17.2114C63.175 17.1616 63.1999 17.1367 63.2248 17.087C63.2248 17.0373 63.2745 16.9875 63.2745 16.9378L66.6074 3.92972C66.7566 3.38254 66.6074 2.81048 66.2094 2.4374C65.8114 2.03945 65.2643 1.89022 64.7171 2.01458L51.5598 5.17332C51.3857 5.22306 51.2365 5.29768 51.0872 5.37229C51.0126 5.42204 50.938 5.47178 50.8634 5.52153C50.8634 5.52153 50.8136 5.5464 50.8136 5.57127L33.9504 22.4345L28.006 16.4901L26.7127 7.38692C26.6381 7.03872 25.7427 3.80536 19.5247 1.39278C11.5159 -1.71622 6.81511 1.44252 6.61613 1.56688C6.16843 1.86534 5.91971 2.38766 5.94459 2.93484C5.94459 3.48202 6.26792 3.97946 6.74049 4.25305C8.10845 5.04896 11.889 7.28744 12.9087 8.15796C14.0529 9.15283 15.1223 10.4462 13.0331 13.4308C11.1926 16.0424 9.07846 15.5698 8.60589 15.4206L2.53712 11.8141C2.03968 11.5157 1.44276 11.5157 0.945317 11.8141C0.447878 12.0877 0.149414 12.61 0.149414 13.1821V16.6642C0.149414 17.0124 0.248902 17.3357 0.447878 17.6093C7.63588 27.3343 8.63076 27.1353 9.57589 26.9612L9.42666 26.9114ZM8.70538 61.8068L6.51664 59.6181C5.79535 58.8968 5.3974 57.9268 5.3974 56.907C5.3974 55.8873 5.79535 54.9173 6.51664 54.196L8.15819 52.5544L15.769 60.1404L14.1275 61.7819C12.6849 63.2245 10.148 63.2245 8.70538 61.7819V61.8068ZM49.6944 42.7051C49.9431 42.9539 50.2416 43.1031 50.5898 43.1528L59.9665 44.471C59.9665 44.471 61.9563 45.2421 63.6973 49.6942C64.8663 52.7534 64.9907 55.1411 64.7668 56.8075C63.8963 55.3898 62.9014 53.8478 62.3045 53.1514C59.0711 49.3708 55.3652 50.7139 52.8283 52.5047C48.8736 55.2904 49.0975 59.1455 49.7441 60.7871C49.769 60.8617 49.8188 60.9363 49.8436 61.0109L52.107 64.8412H51.908C48.6995 62.4535 45.1677 59.5932 44.2723 58.5486C44.3469 56.7827 44.148 52.5296 44.0236 49.8931C44.0236 49.4952 43.8495 49.147 43.551 48.8485L37.5569 42.8544L39.472 40.9392L45.2423 46.7095C45.5408 47.008 45.9636 47.1821 46.3616 47.1821C46.7595 47.1821 47.1823 47.0329 47.4808 46.7095C48.1026 46.0877 48.1026 45.0928 47.4808 44.471L41.7105 38.7007L43.7003 36.711L49.7193 42.7051H49.6944ZM42.581 33.3533L34.1992 41.7351L18.0075 57.9268L10.3967 50.3408L30.7171 30.0204L51.8334 8.90411L59.4193 16.4901L42.5561 33.3533H42.581ZM62.8019 5.64589L60.8122 13.4059L54.9424 7.53616L62.8019 5.64589ZM3.15892 15.8931L6.98921 18.1565C6.98921 18.1565 7.13844 18.2311 7.21306 18.256C8.85461 18.9275 12.7098 19.1265 15.4954 15.1719C17.2862 12.6349 18.6293 8.92899 14.8488 5.69563C14.1275 5.07383 12.6103 4.10382 11.1926 3.2333C12.8839 3.00946 15.2716 3.13382 18.2811 4.27793C22.4347 5.89461 23.3798 7.71026 23.5042 8.00872L24.8224 17.3855C24.8722 17.7337 25.0214 18.0321 25.2701 18.2809L31.5876 24.5983L29.5978 26.5881L23.5788 20.5691C22.957 19.9473 21.9621 19.9473 21.3403 20.5691C20.7185 21.1909 20.7185 22.1858 21.3403 22.8076L27.3594 28.8266L25.4442 30.7417L19.1267 24.4242C18.8531 24.1506 18.4801 23.9765 18.0821 23.9517C15.4706 23.8024 11.1926 23.6035 9.42666 23.6781C8.38204 22.7827 5.52176 19.226 3.13405 16.0424V15.8434L3.15892 15.8931Z" fill="#3B6552"/>
</g>
<defs>
<clipPath id="clip0_715451_4433">
<rect width="68" height="68" fill="white"/>
</clipPath>
</defs>
</svg>
