<svg width="67" height="58" viewBox="0 0 67 58" fill="none" xmlns="http://www.w3.org/2000/svg">
<g clip-path="url(#clip0_715454_2070)">
<path d="M27.7863 42.9056C27.5398 42.9056 27.2756 42.8528 27.0467 42.7295L0.845403 28.9384C0.352368 28.6742 0.0354163 28.181 0.000199525 27.635C-0.0350173 27.089 0.229109 26.543 0.686928 26.2436L38.3161 0.281858C38.8091 -0.0527917 39.4254 -0.0880179 39.9537 0.176179L66.155 13.9673C66.648 14.2314 66.965 14.7246 67.0002 15.2706C67.0354 15.8166 66.7713 16.3626 66.3135 16.6621L54.6919 24.676C53.97 25.1692 52.9839 24.9931 52.4909 24.2709C51.9978 23.5488 52.1739 22.5625 52.8959 22.0693L62.3692 15.5348L39.3374 3.43461L4.64882 27.3532L27.6806 39.471L35.3755 34.1695C36.0974 33.6587 37.0835 33.8525 37.5765 34.5746C38.0696 35.2967 37.8935 36.2831 37.1716 36.7762L28.6843 42.6238C28.4202 42.8175 28.1032 42.9056 27.7863 42.9056Z" fill="#456453"/>
<path d="M27.7861 47.9429C27.5396 47.9429 27.2755 47.8901 27.0466 47.7668L0.845239 33.9757C0.0704694 33.5706 -0.228874 32.6019 0.17612 31.8269C0.581113 31.0519 1.54958 30.7525 2.32435 31.1576L27.6805 44.5084L35.2345 39.2949C35.9564 38.8017 36.9425 38.9778 37.4355 39.7C37.9286 40.4221 37.7525 41.4084 37.0305 41.9016L28.6841 47.6611C28.42 47.8548 28.1031 47.9429 27.7861 47.9429Z" fill="#456453"/>
<path d="M53.7939 30.0127C53.2833 30.0127 52.7902 29.7662 52.4909 29.3258C51.9978 28.6037 52.1739 27.6174 52.8959 27.1242L64.5174 19.1102C65.2394 18.6171 66.2254 18.7932 66.7185 19.5153C67.2115 20.2375 67.0354 21.2238 66.3135 21.717L54.6919 29.7309C54.4102 29.9247 54.1109 30.0127 53.7939 30.0127Z" fill="#456453"/>
<path d="M27.7861 52.9803C27.5396 52.9803 27.2755 52.9275 27.0466 52.8042L0.845239 38.9955C0.0704694 38.5904 -0.228874 37.6217 0.17612 36.8467C0.581113 36.0717 1.54958 35.7723 2.32435 36.1774L27.6805 49.5281L35.2345 44.3146C35.9564 43.8215 36.9425 43.9976 37.4355 44.7197C37.9286 45.4419 37.7525 46.4282 37.0305 46.9214L28.6841 52.6809C28.42 52.8746 28.1031 52.9627 27.7861 52.9627V52.9803Z" fill="#456453"/>
<path d="M53.7939 35.0501C53.2833 35.0501 52.7902 34.8035 52.4909 34.3632C51.9978 33.641 52.1739 32.6547 52.8959 32.1615L64.5174 24.1476C65.2394 23.6544 66.2254 23.8305 66.7185 24.5527C67.2115 25.2748 67.0354 26.2611 66.3135 26.7543L54.6919 34.7683C54.4102 34.962 54.1109 35.0501 53.7939 35.0501Z" fill="#456453"/>
<path d="M27.7861 58C27.5396 58 27.2755 57.9472 27.0466 57.8239L0.845239 44.0504C0.0704694 43.6453 -0.228874 42.6766 0.17612 41.9016C0.581113 41.1266 1.53197 40.8272 2.32435 41.2323L27.6805 54.5654L35.2345 49.352C35.9564 48.8588 36.9425 49.0349 37.4355 49.7571C37.9286 50.4792 37.7525 51.4655 37.0305 51.9587L28.6841 57.7182C28.42 57.9119 28.1031 58 27.7861 58Z" fill="#456453"/>
<path d="M53.7939 40.0699C53.2833 40.0699 52.7902 39.8233 52.4909 39.383C51.9978 38.6608 52.1739 37.6745 52.8959 37.1813L64.5174 29.1673C65.2394 28.6742 66.2254 28.8503 66.7185 29.5725C67.2115 30.2946 67.0354 31.2809 66.3135 31.7741L54.6919 39.7881C54.4102 39.9818 54.1109 40.0699 53.7939 40.0699Z" fill="#456453"/>
<path d="M39.5309 49.9156C39.2668 49.9156 39.0202 49.8452 38.7913 49.7219C38.2631 49.4401 37.9461 48.8941 37.9461 48.2952L38.1574 33.2888L14.5093 19.4978C13.7522 19.0574 13.488 18.0887 13.9459 17.3314C14.3861 16.574 15.3545 16.3274 16.1117 16.7677L40.5522 31.0344C41.0452 31.3162 41.3446 31.8446 41.3446 32.4258L41.1685 45.301L48.1414 40.5102V26.8424L24.5109 12.523C23.7538 12.065 23.5248 11.0963 23.9827 10.339C24.4405 9.5992 25.4089 9.35262 26.1661 9.81056L50.5538 24.5704C51.0292 24.8522 51.3109 25.3806 51.3109 25.9266V41.3204C51.3109 41.8488 51.0468 42.3244 50.6242 42.6238L40.4289 49.6338C40.1648 49.81 39.8478 49.9156 39.5309 49.9156Z" fill="#456453"/>
</g>
<defs>
<clipPath id="clip0_715454_2070">
<rect width="67" height="58" fill="white"/>
</clipPath>
</defs>
</svg>
