<svg width="80" height="71" viewBox="0 0 80 71" fill="none" xmlns="http://www.w3.org/2000/svg">
<path d="M48.0132 1.04611C40.2088 1.04611 33.8359 7.40895 33.8359 15.2011C33.8359 18.8667 35.2675 22.1634 37.5765 24.6762C36.168 25.3448 34.8057 26.0825 33.5588 26.9586C31.1806 25.1373 28.2019 24.0307 24.9924 24.0307C17.188 24.0307 10.8151 30.3936 10.8151 38.1858C10.8151 40.0762 11.1846 41.8513 11.8773 43.4881H2.84909C2.84909 43.4881 2.73364 43.4881 2.68746 43.4881C1.76386 43.5342 0.955707 44.4103 1.00189 45.3324C1.04807 46.2546 1.92549 47.0615 2.84909 47.0154H14.0247C14.1863 47.2229 14.3479 47.4303 14.5326 47.6148C6.61276 51.3495 1.09425 59.1417 1.09425 68.2249C1.09425 69.147 1.94858 70 2.87218 70H47.1358C48.0594 70 48.9137 69.147 48.9137 68.2249C48.9137 59.1417 43.3952 51.3495 35.4753 47.6148C37.7612 45.1019 39.1928 41.8283 39.1928 38.1627C39.1928 34.866 38.0383 31.869 36.1449 29.4714C37.715 28.3879 39.4699 27.4888 41.3402 26.8664C41.9405 26.6589 42.4254 26.1056 42.5178 25.4601C42.6101 24.8376 42.333 24.146 41.8251 23.7541C39.1466 21.8176 37.3918 18.7053 37.3918 15.155C37.3918 9.27631 42.1252 4.55028 48.0132 4.55028C53.9011 4.55028 58.6346 9.27631 58.6346 15.155C58.6346 18.7053 56.8798 21.8176 54.2013 23.7541C53.6933 24.146 53.4163 24.8146 53.5086 25.4601C53.601 26.0825 54.0859 26.6589 54.6862 26.8664C62.0981 29.3331 67.5473 35.7651 68.2631 43.4651H43.5568C43.5568 43.4651 43.4414 43.4651 43.3952 43.4651C42.4716 43.5112 41.6634 44.3872 41.7096 45.3094C41.7558 46.2315 42.6332 47.0384 43.5568 46.9923H77.199C78.1457 46.9923 79 46.1624 79 45.2172C79 44.272 78.1457 43.442 77.199 43.442H71.8421C71.1725 35.1196 65.8618 28.0882 58.4499 24.6071C60.7358 22.0942 62.1674 18.8206 62.1674 15.155C62.1674 7.36285 55.7945 1 47.9901 1L48.0132 1.04611ZM24.9924 27.558C30.8804 27.558 35.6138 32.284 35.6138 38.1627C35.6138 41.713 33.859 44.8253 31.1806 46.7618C30.6726 47.1537 30.3955 47.8223 30.4879 48.4678C30.5802 49.0902 31.0651 49.6665 31.6654 49.874C39.0773 52.3408 44.4573 58.7728 45.1962 66.4728H4.76556C5.50444 58.7728 10.8844 52.3408 18.2963 49.874C18.8967 49.6665 19.3815 49.1133 19.4739 48.4678C19.5663 47.8453 19.2892 47.1537 18.7812 46.7618C16.1028 44.8253 14.3479 41.713 14.3479 38.1627C14.3479 32.284 19.0814 27.558 24.9693 27.558H24.9924Z" fill="#456453" stroke="#456453" stroke-width="0.4" stroke-miterlimit="10"/>
</svg>
