<svg width="93" height="55" viewBox="0 0 93 55" fill="none" xmlns="http://www.w3.org/2000/svg">
<g clip-path="url(#clip0_715451_4468)">
<path d="M79.0246 47.1549H89.4849C90.459 47.1549 91.3483 46.7574 91.9624 46.0252C93.3599 44.3515 92.9788 41.2971 92.8306 40.3766V24.3724C92.8306 20.6904 90.0778 7.99169 89.972 7.44775C89.8026 6.67369 89.1038 6.12976 88.3203 6.12976H20.1796C19.7985 6.12976 19.4173 6.25528 19.0997 6.50633C15.3094 9.58164 2.87974 19.8327 1.7363 23.2427C1.71513 23.3264 -0.847038 31.1088 0.27523 34.3515V42.9917C0.27523 43.2846 0.359932 43.5565 0.486984 43.8076C1.18575 45.021 3.09148 47.0921 5.80187 47.0921H13.8907C14.8224 47.0921 15.5847 46.339 15.5847 45.4185C15.5847 44.498 14.8224 43.7448 13.8907 43.7448H5.80187C4.78548 43.7448 4.02319 42.9289 3.66321 42.4687V33.9959C3.66321 33.7239 3.59968 33.431 3.45145 33.2009C3.09148 32.3431 3.70555 28.0335 4.95487 24.2678C5.54777 22.5733 13.5307 15.3557 20.7725 9.45612H86.9439C87.8333 13.7239 89.4426 21.8829 89.4426 24.3515V40.5021C89.4426 40.5021 89.4426 40.7113 89.4638 40.816C89.6967 42.0293 89.6332 43.5356 89.3579 43.8703L79.0246 43.7867C78.0929 43.7867 77.3306 44.5398 77.3306 45.4603C77.3306 46.3808 78.0929 47.1339 79.0246 47.1339V47.1549Z" fill="#456453"/>
<path d="M28.6707 47.2175H62.8893C63.821 47.2175 64.5833 46.4644 64.5833 45.5439C64.5833 44.6234 63.821 43.8702 62.8893 43.8702H28.6495C27.7178 43.8702 26.9555 44.6234 26.9555 45.5439C26.9555 46.4644 27.7178 47.2175 28.6495 47.2175H28.6707Z" fill="#456453"/>
<path d="M70.9992 55C75.7847 55 79.6809 51.1507 79.6809 46.4226C79.6809 41.6946 75.7847 37.8452 70.9992 37.8452C66.2137 37.8452 62.3175 41.6946 62.3175 46.4226C62.3175 51.1507 66.2137 55 70.9992 55ZM70.9992 41.1925C73.9213 41.1925 76.2929 43.5356 76.2929 46.4226C76.2929 49.3097 73.9213 51.6527 70.9992 51.6527C68.0771 51.6527 65.7055 49.3097 65.7055 46.4226C65.7055 43.5356 68.0771 41.1925 70.9992 41.1925Z" fill="#456453"/>
<path d="M21.2172 55C26.0027 55 29.8989 51.1507 29.8989 46.4226C29.8989 41.6946 26.0027 37.8452 21.2172 37.8452C16.4317 37.8452 12.5355 41.6946 12.5355 46.4226C12.5355 51.1507 16.4317 55 21.2172 55ZM21.2172 41.1925C24.1394 41.1925 26.5109 43.5356 26.5109 46.4226C26.5109 49.3097 24.1394 51.6527 21.2172 51.6527C18.2951 51.6527 15.9235 49.3097 15.9235 46.4226C15.9235 43.5356 18.2951 41.1925 21.2172 41.1925Z" fill="#456453"/>
<path d="M5.0608 23.8284H5.10316L28.2685 23.1171C28.9672 23.1171 29.5601 22.6568 29.8142 22.0292L34.4092 9.70706C34.7268 8.8284 34.2821 7.86605 33.4139 7.55225C32.5246 7.21752 31.5717 7.67777 31.2329 8.53551L27.0191 19.7907L4.99727 20.4602C4.06558 20.4811 3.32446 21.2552 3.34564 22.1757C3.36681 23.0753 4.1291 23.8075 5.03963 23.8075L5.0608 23.8284Z" fill="#456453"/>
<path d="M42.2863 23.138H65.388C66.3197 23.138 67.082 22.3849 67.082 21.4644V9.39324C67.082 8.47274 66.3197 7.7196 65.388 7.7196C64.4563 7.7196 63.6941 8.47274 63.6941 9.39324V19.7907H43.6838L41.7145 9.64429C41.5451 8.74471 40.6558 8.11709 39.7241 8.3263C38.8136 8.49366 38.1995 9.37232 38.3901 10.2928L40.6346 21.7991C40.7829 22.5941 41.4816 23.1589 42.3074 23.1589L42.2863 23.138Z" fill="#456453"/>
<path d="M2.51984 35.4184H90.6073C91.539 35.4184 92.3013 34.6653 92.3013 33.7448C92.3013 32.8243 91.539 32.0712 90.6073 32.0712H2.51984C1.58815 32.0712 0.825859 32.8243 0.825859 33.7448C0.825859 34.6653 1.58815 35.4184 2.51984 35.4184Z" fill="#456453"/>
<path d="M33.9434 3.34728H87.4523C88.3839 3.34728 89.1462 2.59414 89.1462 1.67364C89.1462 0.753138 88.3839 0 87.4523 0H33.9434C33.0117 0 32.2494 0.753138 32.2494 1.67364C32.2494 2.59414 33.0117 3.34728 33.9434 3.34728Z" fill="#456453"/>
<path d="M37.8182 8.11717C38.7499 8.11717 39.5122 7.36403 39.5122 6.44353V2.65692C39.5122 1.73641 38.7499 0.983276 37.8182 0.983276C36.8865 0.983276 36.1242 1.73641 36.1242 2.65692V6.44353C36.1242 7.36403 36.8865 8.11717 37.8182 8.11717Z" fill="#456453"/>
<path d="M84.1488 8.11717C85.0805 8.11717 85.8428 7.36403 85.8428 6.44353V2.65692C85.8428 1.73641 85.0805 0.983276 84.1488 0.983276C83.2171 0.983276 82.4548 1.73641 82.4548 2.65692V6.44353C82.4548 7.36403 83.2171 8.11717 84.1488 8.11717Z" fill="#456453"/>
<path d="M70.1522 8.11717C71.0839 8.11717 71.8462 7.36403 71.8462 6.44353V2.65692C71.8462 1.73641 71.0839 0.983276 70.1522 0.983276C69.2205 0.983276 68.4582 1.73641 68.4582 2.65692V6.44353C68.4582 7.36403 69.2205 8.11717 70.1522 8.11717Z" fill="#456453"/>
<path d="M52.6195 8.11717C53.5512 8.11717 54.3135 7.36403 54.3135 6.44353V2.65692C54.3135 1.73641 53.5512 0.983276 52.6195 0.983276C51.6878 0.983276 50.9255 1.73641 50.9255 2.65692V6.44353C50.9255 7.36403 51.6878 8.11717 52.6195 8.11717Z" fill="#456453"/>
<path d="M19.9891 28.9121H20.0315L25.2405 28.7656C26.1722 28.7447 26.9133 27.9707 26.8921 27.0502C26.871 26.1297 26.0451 25.3556 25.1558 25.4184L19.9468 25.5648C19.0151 25.5857 18.274 26.3598 18.2951 27.2803C18.3163 28.1799 19.0786 28.9121 19.9891 28.9121Z" fill="#456453"/>
<path d="M9.63465 34.6444C10.4393 34.6444 11.1381 34.1005 11.2863 33.2846L13.2555 23.3055C13.4249 22.4059 12.832 21.5272 11.9215 21.339C11.011 21.1716 10.1217 21.7574 9.9311 22.6569L7.96183 32.636C7.79243 33.5356 8.38533 34.4143 9.29585 34.6026C9.40173 34.6026 9.5076 34.6235 9.61347 34.6235L9.63465 34.6444Z" fill="#456453"/>
<path d="M84.5935 41.841H91.1366C92.0683 41.841 92.8306 41.0878 92.8306 40.1673C92.8306 39.2468 92.0683 38.4937 91.1366 38.4937H86.2875V22.7615H90.2896C91.2213 22.7615 91.9836 22.0083 91.9836 21.0878C91.9836 20.1673 91.2213 19.4142 90.2896 19.4142H84.5935C83.6618 19.4142 82.8996 20.1673 82.8996 21.0878V40.1673C82.8996 41.0878 83.6618 41.841 84.5935 41.841Z" fill="#456453"/>
</g>
<defs>
<clipPath id="clip0_715451_4468">
<rect width="93" height="55" fill="white" transform="matrix(-1 0 0 1 93 0)"/>
</clipPath>
</defs>
</svg>
