<svg width="63" height="63" viewBox="0 0 63 63" fill="none" xmlns="http://www.w3.org/2000/svg">
<g clip-path="url(#clip0_715454_2098)">
<path d="M19.094 43.2222C19.6639 43.7922 20.5949 43.7922 21.1648 43.2222L25.8765 38.5105L28.8214 35.5657L31.3102 33.0769L33.3811 31.006L35.8699 28.5172L36.8199 27.5672L40.3346 24.0524L43.3174 21.0696C43.6024 20.7846 43.7544 20.4047 43.7544 20.0247C43.7544 19.6447 43.6024 19.2837 43.3174 18.9988C42.7475 18.4288 41.8165 18.4288 41.2466 18.9988L38.2638 21.9816L34.749 25.4963L33.799 26.4463L31.3102 28.9351L29.2393 31.006L26.7505 33.4948L23.8057 36.4397L19.094 41.1324C18.524 41.7023 18.524 42.6333 19.094 43.2032V43.2222Z" fill="#3B6552"/>
<path d="M37.1619 15.2371L15.2373 37.1617L6.80181 38.3586C6.45983 38.4346 3.47702 39.2516 1.25416 45.0082C-1.61466 52.4367 1.29216 56.7875 1.42515 56.9774C1.71013 57.3954 2.1851 57.6234 2.69807 57.6044C3.19204 57.5854 3.66701 57.3004 3.91399 56.8634C4.65495 55.5905 6.72581 52.0947 7.52376 51.1448C8.43571 50.0809 9.65163 49.0929 12.4065 51.0308C14.8193 52.7217 14.4013 54.6976 14.2493 55.1346L10.9055 60.7582C10.6396 61.2142 10.6396 61.7651 10.9055 62.2211C11.1715 62.6771 11.6465 62.9621 12.1785 62.9621H15.4083C15.7122 62.9621 16.0352 62.8671 16.2822 62.6771C25.3066 56.0085 25.1166 55.0966 24.9457 54.2226C24.8697 53.6337 24.9837 50.1379 25.1546 46.8891L46.9653 25.0785C50.2141 24.9075 53.7098 24.7935 54.2608 24.8695C55.1537 25.0405 56.0657 25.2305 62.7343 16.206C62.9243 15.959 63.0192 15.6551 63.0192 15.3321V12.1023C63.0192 11.5703 62.7343 11.0953 62.2783 10.8294C61.8223 10.5634 61.2524 10.5824 60.8154 10.8294L55.1917 14.1732C54.7738 14.3061 52.7979 14.7431 51.088 12.3303C49.1501 9.57545 50.1381 8.37852 51.202 7.44758C52.1519 6.63063 55.6477 4.55976 56.9206 3.81881C57.3576 3.57183 57.6236 3.11586 57.6616 2.60289C57.6806 2.08992 57.4526 1.63395 57.0346 1.34897C56.8446 1.21598 52.4939 -1.69084 45.0654 1.19698C39.3087 3.41984 38.4918 6.40265 38.3968 6.85862L37.2189 15.1801L37.1619 15.2371ZM46.0723 3.9898C48.9031 2.90687 51.107 2.79288 52.6649 3.00186C51.354 3.81881 49.9291 4.73075 49.2641 5.30072C45.7683 8.30253 47.0033 11.7413 48.6562 14.0972C51.24 17.7639 54.8118 17.5549 56.3317 16.947C56.4077 16.909 56.4647 16.89 56.5217 16.852L60.0554 14.7431V14.9141C57.8516 17.8779 55.1917 21.1647 54.2228 22.0007C52.5889 21.9247 48.6372 22.1147 46.2053 22.2476C45.8443 22.2476 45.5024 22.4186 45.2554 22.6656L39.6887 28.2323L38.5678 29.3532L37.6179 30.3031L35.129 32.792L33.0581 34.8628L30.5693 37.3517L28.4984 39.4226L22.6468 45.2932C22.3998 45.5402 22.2478 45.8821 22.2288 46.2431C22.0958 48.675 21.9059 52.6267 21.9818 54.2606C21.1459 55.2295 17.8591 57.8894 14.8953 60.0932H14.7243L16.8332 56.5595C16.8332 56.5595 16.9092 56.4265 16.9282 56.3695C17.5551 54.8496 17.7451 51.2778 14.0783 48.694C11.7225 47.0411 8.28372 45.7872 5.3009 49.3019C4.73094 49.9669 3.838 51.3728 3.02105 52.6837C2.83106 51.1258 2.92606 48.903 4.00899 46.1101C5.50989 42.2534 7.18179 41.3794 7.46677 41.2654L16.1492 40.0305C16.4722 39.9925 16.7572 39.8405 16.9852 39.6125L22.8368 33.7609L24.9077 31.69L27.3965 29.2012L29.4674 27.1303L31.9562 24.6415L32.2982 24.2995L34.0271 22.5706L39.5937 17.004C39.8217 16.776 39.9737 16.491 40.0117 16.168L41.2276 7.46658C41.2276 7.46658 41.9496 5.6237 46.0723 4.0278V3.9898Z" fill="#3B6552"/>
</g>
<defs>
<clipPath id="clip0_715454_2098">
<rect width="63" height="63" fill="white"/>
</clipPath>
</defs>
</svg>
