<svg width="62" height="62" viewBox="0 0 62 62" fill="none" xmlns="http://www.w3.org/2000/svg">
<g clip-path="url(#clip0_715454_2112)">
<path d="M30.9798 62C13.9126 62 0 48.0874 0 30.9798C0 13.8721 13.9126 0 30.9798 0C48.047 0 61.9596 13.9126 61.9596 30.9798C61.9596 48.047 48.047 61.9596 30.9798 61.9596V62ZM30.9798 4.04436C16.137 4.04436 4.04436 16.137 4.04436 30.9798C4.04436 45.8226 16.137 57.9152 30.9798 57.9152C45.8226 57.9152 57.9152 45.8226 57.9152 30.9798C57.9152 16.137 45.863 4.04436 30.9798 4.04436Z" fill="#456453"/>
<path d="M40.8481 13.7509C41.2929 12.9824 41.8996 12.6993 42.5467 12.6993C42.9916 12.6993 43.4769 12.8611 43.9218 13.1442C44.6497 13.5891 45.1351 14.1958 45.1351 14.9237C45.1351 15.2473 45.0542 15.6113 44.8115 15.9753L36.561 28.8363H43.3556C44.4071 28.8363 45.0137 29.3217 45.0137 30.4541C45.0137 31.5865 44.3666 32.1527 43.3556 32.1527H34.458L32.6784 35.0646V37.289H43.3151C44.4475 37.289 44.9733 37.7339 44.9733 38.9068C44.9733 40.0796 44.3262 40.565 43.3151 40.565H32.6784V49.139C32.6784 50.4332 31.7887 51.1207 30.4945 51.1207C29.2003 51.1207 28.3105 50.4332 28.3105 49.139V40.565H17.6334C16.5819 40.565 15.9753 40.0392 15.9753 38.9068C15.9753 37.7744 16.501 37.289 17.6334 37.289H28.3105V35.0242L26.4501 32.1527H17.6739C16.6223 32.1527 16.0157 31.6269 16.0157 30.4945C16.0157 29.3621 16.5819 28.8363 17.6739 28.8363H24.428L16.137 15.9753C15.8944 15.6517 15.8135 15.2877 15.8135 14.9642C15.8135 14.1958 16.3392 13.5082 17.0672 13.1038C17.5121 12.8611 17.957 12.6993 18.3614 12.6993C19.0085 12.6993 19.5747 12.9824 20.0196 13.7104L30.4945 31.0203L40.8885 13.7104L40.8481 13.7509Z" fill="#456453"/>
</g>
<defs>
<clipPath id="clip0_715454_2112">
<rect width="62" height="62" fill="white"/>
</clipPath>
</defs>
</svg>
