<svg width="62" height="38" viewBox="0 0 62 38" fill="none" xmlns="http://www.w3.org/2000/svg">
<path fill-rule="evenodd" clip-rule="evenodd" d="M1.99172 5.68697C2.10207 5.1692 2.5594 4.79907 3.0888 4.79907H48.0702C48.3295 4.79907 48.5808 4.88893 48.7814 5.05336L48.0702 5.9208C48.7814 5.05336 48.7813 5.05326 48.7814 5.05336L48.8125 5.07891L48.9009 5.15177C48.9782 5.21549 49.0912 5.30894 49.2351 5.42846C49.5229 5.66748 49.9343 6.01091 50.4299 6.42958C51.4206 7.26641 52.7507 8.40612 54.1044 9.61464C55.4552 10.8206 56.8429 12.1067 57.9427 13.2341C58.4916 13.7967 58.983 14.3342 59.3662 14.8118C59.7213 15.2545 60.0787 15.7594 60.235 16.2376C60.6011 17.3579 60.9861 18.8722 61.2076 20.2523C61.3181 20.9411 61.3929 21.6263 61.3971 22.2274C61.4003 22.6685 61.3696 23.2005 61.1991 23.6688V29.4319C61.1991 29.6239 61.1498 29.8127 61.0559 29.9802L60.0773 29.4319C61.0559 29.9802 61.0561 29.9798 61.0559 29.9802L61.0541 29.9834L61.0519 29.9873L61.0465 29.9968L61.0313 30.0227C61.0192 30.043 61.0033 30.0693 60.9835 30.1007C60.9439 30.1633 60.8884 30.247 60.8173 30.3449C60.6763 30.5388 60.467 30.7974 60.19 31.0587C59.6463 31.5714 58.7518 32.1751 57.5473 32.1751H52.2077C51.5882 32.1751 51.086 31.6729 51.086 31.0533C51.086 30.4338 51.5882 29.9316 52.2077 29.9316H57.5473C57.9643 29.9316 58.3347 29.7246 58.6507 29.4266C58.7759 29.3085 58.8786 29.1886 58.9556 29.0886V23.4353C58.9556 23.2429 59.0051 23.0537 59.0993 22.886C59.0972 22.8897 59.0978 22.8874 59.1001 22.8784C59.1105 22.8372 59.1566 22.6546 59.1537 22.2433C59.1506 21.7987 59.0934 21.2364 58.9925 20.6078C58.7911 19.353 58.4353 17.9529 58.1025 16.9345C58.1031 16.9364 58.0971 16.918 58.0759 16.8765C58.0554 16.8362 58.0252 16.783 57.9827 16.7163C57.8969 16.5815 57.7758 16.4145 57.6163 16.2157C57.2969 15.8177 56.8611 15.3381 56.3368 14.8007C55.2901 13.7278 53.9468 12.4813 52.6104 11.2882C51.2768 10.0978 49.9633 8.97216 48.9822 8.14342C48.4919 7.7293 48.0854 7.38988 47.8017 7.15425C47.7531 7.11391 47.7082 7.07663 47.667 7.04253H4.00043C3.96914 7.19419 3.93461 7.36236 3.89742 7.54472C3.72389 8.39562 3.49272 9.55371 3.26173 10.7842C2.78886 13.3032 2.35145 15.9534 2.35145 17.0054V27.7965C2.35145 27.8645 2.34525 27.9324 2.33294 27.9994C2.33292 27.9995 2.33296 27.9993 2.33294 27.9994L2.33269 28.0007C2.33266 28.0009 2.33272 28.0005 2.33269 28.0007L2.32936 28.02C2.32638 28.0378 2.32173 28.0663 2.31612 28.104C2.30485 28.1797 2.28988 28.291 2.27644 28.4255C2.24896 28.7008 2.23076 29.0456 2.25422 29.3726C2.27642 29.6821 2.33005 29.8826 2.37881 29.9875H9.22517C9.84468 29.9875 10.3469 30.4897 10.3469 31.1093C10.3469 31.7288 9.84468 32.231 9.22517 32.231H2.32001C1.43889 32.231 0.815667 31.7611 0.462628 31.1591C0.151358 30.6284 0.0507867 30.0109 0.0165146 29.5331C-0.0194363 29.0319 0.00954574 28.5485 0.0440898 28.2026C0.0616654 28.0266 0.0814222 27.8791 0.0971249 27.7736C0.101013 27.7475 0.104665 27.7239 0.107992 27.7029V17.0054C0.107992 15.6951 0.600121 12.803 1.05679 10.3703C1.29057 9.12491 1.52417 7.95478 1.69921 7.09642C1.78678 6.66707 1.85977 6.3153 1.91094 6.07062L1.97041 5.7875L1.99172 5.68697C1.99174 5.68687 1.99172 5.68697 3.0888 5.9208L1.99172 5.68697Z" fill="#456453"/>
<path fill-rule="evenodd" clip-rule="evenodd" d="M18.7393 31.1522C18.7393 30.5327 19.2415 30.0305 19.861 30.0305H42.4635C43.083 30.0305 43.5852 30.5327 43.5852 31.1522C43.5852 31.7718 43.083 32.274 42.4635 32.274H19.861C19.2415 32.274 18.7393 31.7718 18.7393 31.1522Z" fill="#456453"/>
<path fill-rule="evenodd" clip-rule="evenodd" d="M14.5196 28.2471C12.5916 28.2471 11.0286 29.8101 11.0286 31.7381C11.0286 33.6662 12.5916 35.2292 14.5196 35.2292C16.4477 35.2292 18.0107 33.6662 18.0107 31.7381C18.0107 29.8101 16.4477 28.2471 14.5196 28.2471ZM8.78516 31.7381C8.78516 28.5711 11.3526 26.0037 14.5196 26.0037C17.6867 26.0037 20.2541 28.5711 20.2541 31.7381C20.2541 34.9052 17.6867 37.4726 14.5196 37.4726C11.3526 37.4726 8.78516 34.9052 8.78516 31.7381Z" fill="#456453"/>
<path fill-rule="evenodd" clip-rule="evenodd" d="M47.3849 28.2471C45.4568 28.2471 43.8938 29.8101 43.8938 31.7381C43.8938 33.6662 45.4568 35.2292 47.3849 35.2292C49.3129 35.2292 50.8759 33.6662 50.8759 31.7381C50.8759 29.8101 49.3129 28.2471 47.3849 28.2471ZM41.6504 31.7381C41.6504 28.5711 44.2178 26.0037 47.3849 26.0037C50.5519 26.0037 53.1194 28.5711 53.1194 31.7381C53.1194 34.9052 50.5519 37.4726 47.3849 37.4726C44.2178 37.4726 41.6504 34.9052 41.6504 31.7381Z" fill="#456453"/>
<path fill-rule="evenodd" clip-rule="evenodd" d="M39.3357 5.77781C39.9167 5.56277 40.562 5.85944 40.777 6.44044L43.5618 13.9645L58.0841 14.4029C58.7034 14.4216 59.1902 14.9388 59.1715 15.558C59.1528 16.1772 58.6357 16.6641 58.0164 16.6454L42.7384 16.1841C42.2817 16.1703 41.8789 15.8808 41.7203 15.4522L38.6731 7.21915C38.458 6.63816 38.7547 5.99285 39.3357 5.77781Z" fill="#456453"/>
<path fill-rule="evenodd" clip-rule="evenodd" d="M18.2394 5.87451C18.8589 5.87451 19.3611 6.37673 19.3611 6.99624V13.9398H32.5493L33.8557 7.16137C33.9729 6.55305 34.5611 6.15495 35.1694 6.27219C35.7778 6.38943 36.1758 6.97761 36.0586 7.58593L34.5769 15.2739C34.4752 15.8018 34.0131 16.1833 33.4755 16.1833H18.2394C17.6199 16.1833 17.1177 15.6811 17.1177 15.0616V6.99624C17.1177 6.37673 17.6199 5.87451 18.2394 5.87451Z" fill="#456453"/>
<path fill-rule="evenodd" clip-rule="evenodd" d="M0.453125 23.2677C0.453125 22.6482 0.955339 22.146 1.57485 22.146H59.7096C60.3291 22.146 60.8313 22.6482 60.8313 23.2677C60.8313 23.8872 60.3291 24.3894 59.7096 24.3894H1.57485C0.955339 24.3894 0.453125 23.8872 0.453125 23.2677Z" fill="#456453"/>
<path fill-rule="evenodd" clip-rule="evenodd" d="M2.53906 1.83926C2.53906 1.21974 3.04128 0.717529 3.66079 0.717529H38.9833C39.6028 0.717529 40.1051 1.21974 40.1051 1.83926C40.1051 2.45877 39.6028 2.96098 38.9833 2.96098H3.66079C3.04128 2.96098 2.53906 2.45877 2.53906 1.83926Z" fill="#456453"/>
<path fill-rule="evenodd" clip-rule="evenodd" d="M36.4274 1.37549C37.0469 1.37549 37.5491 1.8777 37.5491 2.49721V5.02724C37.5491 5.64676 37.0469 6.14897 36.4274 6.14897C35.8079 6.14897 35.3057 5.64676 35.3057 5.02724V2.49721C35.3057 1.8777 35.8079 1.37549 36.4274 1.37549Z" fill="#456453"/>
<path fill-rule="evenodd" clip-rule="evenodd" d="M5.82876 1.37549C6.44827 1.37549 6.95048 1.8777 6.95048 2.49721V5.02724C6.95048 5.64676 6.44827 6.14897 5.82876 6.14897C5.20925 6.14897 4.70703 5.64676 4.70703 5.02724V2.49721C4.70703 1.8777 5.20925 1.37549 5.82876 1.37549Z" fill="#456453"/>
<path fill-rule="evenodd" clip-rule="evenodd" d="M15.0778 1.37549C15.6973 1.37549 16.1995 1.8777 16.1995 2.49721V5.02724C16.1995 5.64676 15.6973 6.14897 15.0778 6.14897C14.4583 6.14897 13.9561 5.64676 13.9561 5.02724V2.49721C13.9561 1.8777 14.4583 1.37549 15.0778 1.37549Z" fill="#456453"/>
<path fill-rule="evenodd" clip-rule="evenodd" d="M26.6535 1.37549C27.273 1.37549 27.7752 1.8777 27.7752 2.49721V5.02724C27.7752 5.64676 27.273 6.14897 26.6535 6.14897C26.034 6.14897 25.5317 5.64676 25.5317 5.02724V2.49721C25.5317 1.8777 26.034 1.37549 26.6535 1.37549Z" fill="#456453"/>
<path fill-rule="evenodd" clip-rule="evenodd" d="M43.6328 18.7911C43.6505 18.1719 44.1668 17.6842 44.7861 17.7019L48.2107 17.7997C48.83 17.8174 49.3176 18.3338 49.2999 18.953C49.2823 19.5723 48.7659 20.06 48.1466 20.0423L44.722 19.9444C44.1028 19.9267 43.6151 19.4104 43.6328 18.7911Z" fill="#456453"/>
<path fill-rule="evenodd" clip-rule="evenodd" d="M53.5157 14.9811C54.1237 14.8626 54.7128 15.2594 54.8313 15.8675L56.1313 22.535C56.2498 23.1431 55.853 23.7321 55.245 23.8507C54.6369 23.9692 54.0479 23.5724 53.9293 22.9643L52.6293 16.2968C52.5108 15.6887 52.9076 15.0997 53.5157 14.9811Z" fill="#456453"/>
<path fill-rule="evenodd" clip-rule="evenodd" d="M0.662638 14.81C0.662638 14.1904 1.16485 13.6882 1.78436 13.6882H5.54446C6.16397 13.6882 6.66619 14.1904 6.66619 14.81V27.5579C6.66619 28.1775 6.16397 28.6797 5.54446 28.6797H1.22524C0.60573 28.6797 0.103516 28.1775 0.103516 27.5579C0.103516 26.9384 0.60573 26.4362 1.22524 26.4362H4.42273V15.9317H1.78436C1.16485 15.9317 0.662638 15.4295 0.662638 14.81Z" fill="#456453"/>
</svg>
