<svg width="56" height="53" viewBox="0 0 56 53" fill="none" xmlns="http://www.w3.org/2000/svg">
<path fill-rule="evenodd" clip-rule="evenodd" d="M27.7968 1.74146C42.5937 1.74146 54.5936 11.3504 54.5936 23.2C54.5936 27.3353 53.135 31.1999 50.5936 34.4781C50.4733 34.6585 50.3079 34.869 50.0974 35.0946H50.0824C49.2102 36.1472 48.2478 37.1247 47.1651 38.0119C39.7516 44.8539 27.5562 53.0193 25.9472 51.7561C24.5487 50.6584 28.2479 45.3201 23.9773 44.4179C23.6765 44.3878 23.3758 44.3427 23.0901 44.3126C10.5338 42.5382 1 33.7563 1 23.2C1 11.3504 12.9999 1.74146 27.7968 1.74146Z" stroke="#456453" stroke-width="2" stroke-linecap="round" stroke-linejoin="round"/>
<path fill-rule="evenodd" clip-rule="evenodd" d="M12.2485 30.042H17.6469C18.4139 30.042 19.0454 29.4104 19.0454 28.6435V28.5232C19.0454 27.7563 18.4139 27.1247 17.6469 27.1247H13.7522V18.2676C13.7522 17.5007 13.1207 16.8691 12.3537 16.8691H12.2334C11.4665 16.8691 10.835 17.5007 10.835 18.2676V28.6285C10.835 29.3954 11.4665 30.0269 12.2334 30.0269L12.2485 30.042ZM45.737 23.5458V23.4255C45.737 22.6586 45.1054 22.027 44.3385 22.027H40.4438V19.8165H44.3385C45.1054 19.8165 45.737 19.1849 45.737 18.418V18.2977C45.737 17.5308 45.1054 16.8992 44.3385 16.8992H38.94C38.1731 16.8992 37.5415 17.5308 37.5415 18.2977V28.6585C37.5415 29.4254 38.1731 30.057 38.94 30.057H44.3385C45.1054 30.057 45.737 29.4254 45.737 28.6585V28.5382C45.737 27.7713 45.1054 27.1397 44.3385 27.1397H40.4438V24.9292H44.3385C45.1054 24.9292 45.737 24.2977 45.737 23.5307V23.5458ZM35.3461 29.6209C35.6017 29.3653 35.7521 29.0044 35.7521 28.6435V18.2827C35.7521 17.5158 35.1205 16.8842 34.3536 16.8842H34.2333C33.4664 16.8842 32.8348 17.5158 32.8348 18.2827V24.3728L27.7822 17.606C27.5416 17.1849 27.0905 16.8992 26.5642 16.8992H26.4439C25.677 16.8992 25.0454 17.5308 25.0454 18.2977V28.6585C25.0454 29.4254 25.677 30.057 26.4439 30.057H26.5642C27.3311 30.057 27.9627 29.4254 27.9627 28.6585V22.4631L33.0453 29.4104C33.0453 29.4104 33.1055 29.5006 33.1506 29.5457C33.2859 29.7412 33.4814 29.8615 33.6919 29.9518C33.8574 30.0119 34.0378 30.057 34.2183 30.057H34.3386C34.5641 30.057 34.7897 29.9969 34.9852 29.8916C35.1205 29.8315 35.2408 29.7412 35.331 29.636L35.3461 29.6209ZM21.5868 30.042H21.7071C22.474 30.042 23.1056 29.4104 23.1056 28.6435V18.2827C23.1056 17.5158 22.474 16.8842 21.7071 16.8842H21.5868C20.8199 16.8842 20.1883 17.5158 20.1883 18.2827V28.6435C20.1883 29.4104 20.8199 30.042 21.5868 30.042Z" fill="#456453"/>
</svg>
