<svg width="48" height="48" viewBox="0 0 48 48" fill="none" xmlns="http://www.w3.org/2000/svg">
<path d="M9.17038 28.885H9.01986C8.01638 28.885 7.22363 29.6878 7.22363 30.6812V30.8819C7.22363 31.8854 8.02641 32.6781 9.01986 32.6781H9.17038C10.1739 32.6781 10.9666 31.8754 10.9666 30.8819V30.6812C10.9666 29.6778 10.1638 28.885 9.17038 28.885Z" fill="#456453"/>
<path d="M16.4648 28.885H16.3143C15.3108 28.885 14.5181 29.6878 14.5181 30.6812V30.8819C14.5181 31.8854 15.3208 32.6781 16.3143 32.6781H16.4648C17.4683 32.6781 18.261 31.8754 18.261 30.8819V30.6812C18.261 29.6778 17.4583 28.885 16.4648 28.885Z" fill="#456453"/>
<path d="M23.8206 28.885H23.62C22.6165 28.885 21.8237 29.6878 21.8237 30.6812V30.8819C21.8237 31.8854 22.6265 32.6781 23.62 32.6781H23.8206C24.8241 32.6781 25.6169 31.8754 25.6169 30.8819V30.6812C25.6169 29.6778 24.8141 28.885 23.8206 28.885Z" fill="#456453"/>
<path d="M9.17038 21.4927H9.01986C8.01638 21.4927 7.22363 22.2955 7.22363 23.2889V23.4896C7.22363 24.4931 8.02641 25.2858 9.01986 25.2858H9.17038C10.1739 25.2858 10.9666 24.483 10.9666 23.4896V23.2889C10.9666 22.2854 10.1638 21.4927 9.17038 21.4927Z" fill="#456453"/>
<path d="M16.4648 21.4927H16.3143C15.3108 21.4927 14.5181 22.2955 14.5181 23.2889V23.4896C14.5181 24.4931 15.3208 25.2858 16.3143 25.2858H16.4648C17.4683 25.2858 18.261 24.483 18.261 23.4896V23.2889C18.261 22.2854 17.4583 21.4927 16.4648 21.4927Z" fill="#456453"/>
<path d="M23.8206 21.4927H23.62C22.6165 21.4927 21.8237 22.2955 21.8237 23.2889V23.4896C21.8237 24.4931 22.6265 25.2858 23.62 25.2858H23.8206C24.8241 25.2858 25.6169 24.483 25.6169 23.4896V23.2889C25.6169 22.2854 24.8141 21.4927 23.8206 21.4927Z" fill="#456453"/>
<path d="M31.1151 28.885H30.9144C29.9109 28.885 29.1182 29.6878 29.1182 30.6812V30.8819C29.1182 31.8854 29.9209 32.6781 30.9144 32.6781H31.1151C32.1186 32.6781 32.9113 31.8754 32.9113 30.8819V30.6812C32.9615 29.6778 32.1085 28.885 31.1151 28.885Z" fill="#456453"/>
<path d="M38.4637 28.885H38.263C37.2595 28.885 36.4668 29.6878 36.4668 30.6812V30.8819C36.4668 31.8854 37.2696 32.6781 38.263 32.6781H38.4637C39.4672 32.6781 40.2599 31.8754 40.2599 30.8819V30.6812C40.2599 29.6778 39.4572 28.885 38.4637 28.885Z" fill="#456453"/>
<path d="M31.1151 21.4927H30.9144C29.9109 21.4927 29.1182 22.2955 29.1182 23.2889V23.4896C29.1182 24.4931 29.9209 25.2858 30.9144 25.2858H31.1151C32.1186 25.2858 32.9113 24.483 32.9113 23.4896V23.2889C32.9615 22.2854 32.1085 21.4927 31.1151 21.4927Z" fill="#456453"/>
<path d="M38.4637 21.4927H38.263C37.2595 21.4927 36.4668 22.2955 36.4668 23.2889V23.4896C36.4668 24.4931 37.2696 25.2858 38.263 25.2858H38.4637C39.4672 25.2858 40.2599 24.483 40.2599 23.4896V23.2889C40.2599 22.2854 39.4572 21.4927 38.4637 21.4927Z" fill="#456453"/>
<path d="M9.17038 36.2312H9.01986C8.01638 36.2312 7.22363 37.034 7.22363 38.0274V38.2281C7.22363 39.2316 8.02641 40.0243 9.01986 40.0243H9.17038C10.1739 40.0243 10.9666 39.2216 10.9666 38.2281V38.0274C10.9666 37.0741 10.1638 36.2312 9.17038 36.2312Z" fill="#456453"/>
<path d="M16.4648 36.2312H16.3143C15.3108 36.2312 14.5181 37.034 14.5181 38.0274V38.2281C14.5181 39.2316 15.3208 40.0243 16.3143 40.0243H16.4648C17.4683 40.0243 18.261 39.2216 18.261 38.2281V38.0274C18.261 37.0741 17.4583 36.2312 16.4648 36.2312Z" fill="#456453"/>
<path d="M23.8206 36.2312H23.62C22.6165 36.2312 21.8237 37.034 21.8237 38.0274V38.2281C21.8237 39.2316 22.6265 40.0243 23.62 40.0243H23.8206C24.8241 40.0243 25.6169 39.2216 25.6169 38.2281V38.0274C25.6169 37.0741 24.8141 36.2312 23.8206 36.2312Z" fill="#456453"/>
<path d="M31.1151 36.2312H30.9144C29.9109 36.2312 29.1182 37.034 29.1182 38.0274V38.2281C29.1182 39.2316 29.9209 40.0243 30.9144 40.0243H31.1151C32.1186 40.0243 32.9113 39.2216 32.9113 38.2281V38.0274C32.9615 37.0741 32.1085 36.2312 31.1151 36.2312Z" fill="#456453"/>
<path d="M38.4637 36.2312H38.263C37.2595 36.2312 36.4668 37.034 36.4668 38.0274V38.2281C36.4668 39.2316 37.2696 40.0243 38.263 40.0243H38.4637C39.4672 40.0243 40.2599 39.2216 40.2599 38.2281V38.0274C40.2599 37.0741 39.4572 36.2312 38.4637 36.2312Z" fill="#456453"/>
<path d="M47.4644 15.6411V11.5871C47.4644 8.48636 44.9658 5.9877 41.9152 5.9877H38.965V4.24166C38.965 2.09422 37.2189 0.338135 35.0615 0.338135C32.904 0.338135 31.1579 2.08418 31.1579 4.24166V5.9877H16.3567V4.24166C16.3567 2.09422 14.6106 0.338135 12.4531 0.338135C10.2957 0.338135 8.54962 2.08418 8.54962 4.24166V5.9877H5.5994C2.49866 5.9877 0 8.48636 0 11.5871V41.4807C0 44.5312 2.49866 47.0299 5.5994 47.0299H41.9453C44.9959 47.0299 47.4945 44.5312 47.4945 41.4807L47.4444 15.6311L47.4644 15.6411ZM33.4659 4.24166C33.4659 3.3887 34.1684 2.6963 35.0113 2.6963C35.8542 2.6963 36.5566 3.39874 36.5566 4.24166V7.94448C36.5566 8.79744 35.8542 9.48984 35.0113 9.48984C34.1684 9.48984 33.4659 8.7874 33.4659 7.94448V4.24166ZM10.8676 4.24166C10.8676 3.3887 11.5701 2.6963 12.413 2.6963C13.2559 2.6963 13.9584 3.39874 13.9584 4.24166V7.94448C13.9584 8.79744 13.2559 9.48984 12.413 9.48984C11.5701 9.48984 10.8676 8.7874 10.8676 7.94448V4.24166ZM5.56929 8.34587H8.56969C8.77038 10.2926 10.4161 11.848 12.4732 11.848C14.5303 11.848 16.1259 10.3027 16.3266 8.34587H31.178C31.3787 10.2926 33.0244 11.848 35.0314 11.848C37.0383 11.848 38.684 10.3027 38.8847 8.34587H41.8851C43.6311 8.34587 45.0862 9.79088 45.0862 11.5971V14.4972H2.31803V11.5971C2.31803 9.80091 3.76304 8.34587 5.56929 8.34587ZM41.9152 44.6918H5.56929C3.77307 44.6918 2.31803 43.2468 2.31803 41.4907V16.7951H45.1163V41.4907C45.1163 43.2367 43.6713 44.6918 41.9152 44.6918Z" fill="#456453"/>
</svg>
