<svg width="45" height="46" viewBox="0 0 45 46" fill="none" xmlns="http://www.w3.org/2000/svg">
<path d="M34.4638 45.2032C26.448 45.2032 17.9881 41.2262 10.9312 34.0723C4.39852 27.4407 0.520495 19.5393 0.0198004 11.8248C-0.164417 8.99771 0.945613 6.1994 2.98146 4.33066C4.67248 2.78297 6.39657 1.71923 8.11121 1.17778C10.0006 0.578822 12.0837 1.36944 13.1796 3.1088C15.6075 6.96606 17.0859 10.5694 17.6953 14.12C17.9314 15.5095 17.4969 16.9614 16.5333 18.0108L14.1904 20.5503C14.0204 20.7372 14.0015 21.0199 14.1432 21.2355C15.3713 23.1234 16.7978 24.8963 18.3896 26.5111C20.4821 28.629 22.8108 30.4402 25.3143 31.8921C25.5033 31.9975 25.7489 31.9592 25.9189 31.801L28.0918 29.7359C29.1262 28.7536 30.5622 28.3127 31.932 28.5523C35.4321 29.1752 38.9795 30.6702 42.7772 33.1283C44.5013 34.2448 45.2807 36.377 44.6714 38.3177C44.421 39.1035 44.0715 39.8989 43.6227 40.6799C42.1868 43.1812 39.5699 44.8295 36.6272 45.1026C35.9139 45.1697 35.1912 45.1984 34.4685 45.1984L34.4638 45.2032ZM9.38184 3.37713C9.1929 3.37713 9.00396 3.40588 8.81974 3.46338C7.43575 3.90421 6.00452 4.79545 4.56856 6.10836C3.06176 7.48834 2.24458 9.56791 2.38157 11.6666C2.84447 18.8014 6.47687 26.1613 12.608 32.3808C19.802 39.6785 28.4791 43.4495 36.4146 42.7212C38.5969 42.5199 40.5288 41.3076 41.5822 39.4772C41.9459 38.8495 42.2246 38.2122 42.423 37.5941C42.7064 36.6885 42.3332 35.6871 41.5113 35.1552C37.9828 32.8696 34.7189 31.4848 31.5305 30.9194C30.8834 30.8044 30.2079 31.02 29.7119 31.4896L27.5391 33.5548C26.618 34.4269 25.2293 34.5994 24.1476 33.9764C21.4599 32.4192 18.9659 30.4786 16.7269 28.2073C15.0217 26.4776 13.496 24.5801 12.1782 22.558C11.4319 21.4128 11.5547 19.913 12.471 18.9164L14.8139 16.3768C15.2768 15.8737 15.4846 15.1885 15.3713 14.5368C14.8139 11.3025 13.4488 7.99146 11.191 4.40254C10.7895 3.76046 10.0856 3.38192 9.38184 3.38192V3.37713Z" fill="#3B6552"/>
<path d="M43.6878 24.2884C43.0359 24.2884 42.5069 23.7518 42.5069 23.0905C42.5069 11.8638 33.4991 2.72613 22.4319 2.72613C21.78 2.72613 21.251 2.18947 21.251 1.52823C21.251 0.866984 21.78 0.330322 22.4319 0.330322C34.8028 0.330322 44.8686 10.5413 44.8686 23.0905C44.8686 23.7518 44.3396 24.2884 43.6878 24.2884Z" fill="#3B6552"/>
<path d="M36.0073 24.2883C35.3554 24.2883 34.8264 23.7516 34.8264 23.0904C34.8264 16.1569 29.2668 10.5172 22.4319 10.5172C21.78 10.5172 21.251 9.98049 21.251 9.31924C21.251 8.658 21.78 8.12134 22.4319 8.12134C30.5658 8.12134 37.1882 14.8344 37.1882 23.0904C37.1882 23.7516 36.6591 24.2883 36.0073 24.2883Z" fill="#3B6552"/>
</svg>
