<svg width="72" height="69" viewBox="0 0 72 69" fill="none" xmlns="http://www.w3.org/2000/svg">
<path d="M65.8828 0.0976562H17.5664C14.5766 0.0976562 12.1634 2.51969 12.1634 5.50952V10.9037H5.403C2.42203 10.9037 0.00887191 13.3257 0 16.3066V58.1289C0 63.5673 3.54877 68.3316 7.65646 68.3316H61.5711C66.6636 68.3316 71.3302 63.4698 71.3302 58.1289V5.50952C71.3213 2.51969 68.8904 0.0976562 65.9006 0.0976562C65.9006 0.0976562 65.8917 0.0976562 65.8828 0.0976562ZM7.87826 64.9336H7.65646C5.72239 64.9336 3.37133 61.7841 3.37133 58.1022V16.3066C3.37133 15.1888 4.28514 14.275 5.403 14.275H12.1634V58.1289C12.1634 61.7841 9.80347 64.9336 7.87826 64.9336ZM67.9234 58.1289C67.9234 61.6776 64.836 64.9602 61.5711 64.9602H13.4676C14.825 62.9463 15.5436 60.5598 15.5347 58.1289V5.50952C15.5436 4.39166 16.4485 3.48673 17.5664 3.46898H65.8828C67.0007 3.48673 67.9056 4.39166 67.9234 5.50952V58.1289Z" fill="#6B6E65"/>
<path d="M61.8933 20.1633H46.4562C45.5246 20.1633 44.7705 20.9174 44.7705 21.849V37.2861C44.7705 38.2177 45.5246 38.9718 46.4562 38.9718H61.8933C62.8249 38.9718 63.579 38.2177 63.579 37.2861V21.849C63.579 20.9174 62.8249 20.1633 61.8933 20.1633ZM60.2076 35.6005H48.1418V23.5258H60.2076V35.6005Z" fill="#6B6E65"/>
<path d="M38.7385 20.1633H23.3014C22.3698 20.1633 21.6157 20.9174 21.6157 21.849C21.6157 22.7805 22.3698 23.5347 23.3014 23.5347H38.7385C39.6701 23.5347 40.4242 22.7805 40.4242 21.849C40.4242 20.9174 39.6701 20.1633 38.7385 20.1633Z" fill="#6B6E65"/>
<path d="M38.7385 27.8792H23.3014C22.3698 27.8792 21.6157 28.6333 21.6157 29.5648C21.6157 30.4964 22.3698 31.2505 23.3014 31.2505H38.7385C39.6701 31.2505 40.4242 30.4964 40.4242 29.5648C40.4242 28.6333 39.6701 27.8792 38.7385 27.8792Z" fill="#6B6E65"/>
<path d="M38.7385 35.6023H23.3014C22.3698 35.6023 21.6157 36.3564 21.6157 37.288C21.6157 38.2195 22.3698 38.9736 23.3014 38.9736H38.7385C39.6701 38.9736 40.4242 38.2195 40.4242 37.288C40.4242 36.3564 39.6701 35.6023 38.7385 35.6023Z" fill="#6B6E65"/>
<path d="M38.7385 43.3218H23.3014C22.3698 43.3218 21.6157 44.0759 21.6157 45.0074C21.6157 45.939 22.3698 46.6931 23.3014 46.6931H38.7385C39.6701 46.6931 40.4242 45.939 40.4242 45.0074C40.4242 44.0759 39.6701 43.3218 38.7385 43.3218Z" fill="#6B6E65"/>
<path d="M61.8933 43.3218H46.4562C45.5246 43.3218 44.7705 44.0759 44.7705 45.0074C44.7705 45.939 45.5246 46.6931 46.4562 46.6931H61.8933C62.8249 46.6931 63.579 45.939 63.579 45.0074C63.579 44.0759 62.8249 43.3218 61.8933 43.3218Z" fill="#6B6E65"/>
<path d="M61.8933 51.0271H46.4562C45.5246 51.0271 44.7705 51.7812 44.7705 52.7128C44.7705 53.6443 45.5246 54.3984 46.4562 54.3984H61.8933C62.8249 54.3984 63.579 53.6443 63.579 52.7128C63.579 51.7812 62.8249 51.0271 61.8933 51.0271Z" fill="#6B6E65"/>
<path d="M38.7385 51.0271H23.3014C22.3698 51.0271 21.6157 51.7812 21.6157 52.7128C21.6157 53.6443 22.3698 54.3984 23.3014 54.3984H38.7385C39.6701 54.3984 40.4242 53.6443 40.4242 52.7128C40.4242 51.7812 39.6701 51.0271 38.7385 51.0271Z" fill="#6B6E65"/>
<path d="M61.8942 10.9062H23.3014C22.3698 10.9062 21.6157 11.6604 21.6157 12.5919C21.6157 13.5235 22.3698 14.2776 23.3014 14.2776H61.8942C62.8258 14.2776 63.5799 13.5235 63.5799 12.5919C63.5799 11.6604 62.8258 10.9062 61.8942 10.9062Z" fill="#6B6E65"/>
</svg>
