<svg width="76" height="86" viewBox="0 0 76 86" fill="none" xmlns="http://www.w3.org/2000/svg">
<path id="Vector" d="M27.0958 24.3283C29.932 24.3283 32.5145 25.4728 34.3857 27.3172C36.2598 29.1534 37.4227 31.6949 37.4227 34.4917V46.1097C37.4227 48.8955 36.2626 51.437 34.3913 53.2814L34.3802 53.2923C33.5603 54.0965 32.6037 54.7689 31.5523 55.2685L32.2188 64.1281C32.9467 64.2818 33.6857 64.4026 34.4276 64.4986C35.5598 64.6413 36.7562 64.7155 38.0028 64.7155C39.2494 64.7155 40.4458 64.6413 41.578 64.4986C42.3226 64.4053 43.0589 64.2818 43.7867 64.1281L44.4533 55.2685C43.3991 54.7662 42.4397 54.0938 41.6171 53.2841C39.743 51.4479 38.5801 48.9064 38.5801 46.1097V34.4944C38.5801 33.4844 39.4111 32.6638 40.4402 32.6638C41.4692 32.6638 42.3003 33.4817 42.3003 34.4944V46.1097C42.3003 47.8964 43.0449 49.5212 44.2413 50.7014C44.9859 51.4397 45.909 52.0024 46.9436 52.3207H46.9492C47.5683 52.5129 48.2265 52.6144 48.9069 52.6144C50.7224 52.6144 52.3762 51.8816 53.5726 50.7042C54.7746 49.5295 55.5136 47.9046 55.5136 46.1124V34.4972C55.5136 33.4871 56.3446 32.6665 57.3737 32.6665C58.4028 32.6665 59.2338 33.4844 59.2338 34.4972V46.1124C59.2338 48.9009 58.0709 51.4425 56.1968 53.2868C55.3769 54.0965 54.4204 54.7717 53.3606 55.274L53.7092 59.9316C57.0167 57.6947 59.8083 54.7689 61.8692 51.3684C64.3373 47.2898 65.7568 42.5115 65.7568 37.401C65.7568 29.8587 62.6501 23.0274 57.6275 18.0843C52.6049 13.1413 45.6636 10.0837 38 10.0837C30.3364 10.0837 23.3951 13.1413 18.3725 18.0843C13.3499 23.0274 10.2432 29.8587 10.2432 37.401C10.2432 42.5115 11.6627 47.2898 14.1308 51.3684C16.1917 54.7689 18.9805 57.6975 22.2908 59.9316L22.6394 55.2712C21.5852 54.7689 20.6287 54.0965 19.8087 53.2896L19.7976 53.2786C17.9291 51.4342 16.7718 48.8982 16.7718 46.1124V34.4944C16.7718 31.6976 17.9319 29.1589 19.8032 27.3172L19.9203 27.2102C21.7832 25.4317 24.3182 24.3338 27.0958 24.3338V24.3283ZM32.4977 67.8937L32.7125 70.7426C33.3595 70.8415 34.0009 70.9238 34.6395 70.9842C35.7048 71.0857 36.8287 71.1379 38.0028 71.1379C39.1769 71.1379 40.3008 71.0857 41.3661 70.9842C42.0019 70.9238 42.6461 70.8415 43.2931 70.7426L43.5079 67.8937C43.0254 67.9761 42.5374 68.0502 42.0465 68.1133C40.6884 68.2862 39.3358 68.374 38.0056 68.374C36.6753 68.374 35.3228 68.2862 33.9646 68.1133C33.4738 68.0529 32.9858 67.9788 32.5033 67.8937H32.4977ZM54.0216 64.0622L54.2503 67.117C59.3231 64.4273 63.6262 60.5162 66.7524 55.7899C70.2495 50.5065 72.2826 44.1884 72.2826 37.3955C72.2826 28.0775 68.4452 19.6405 62.2401 13.5365C56.0379 7.43244 47.4651 3.65309 37.9972 3.65309C28.5293 3.65309 19.9566 7.42969 13.7543 13.5365C7.55203 19.6405 3.71187 28.0775 3.71187 37.3955C3.71187 44.1884 5.7449 50.5065 9.24204 55.7927C12.3683 60.5189 16.6742 64.4273 21.7442 67.117L21.9728 64.0595C17.4411 61.4164 13.6427 57.6865 10.946 53.232C8.13489 48.5908 6.52018 43.1729 6.52018 37.3955C6.52018 28.8405 10.0424 21.0952 15.7399 15.4906C21.4346 9.88613 29.3046 6.41693 37.9972 6.41693C46.6899 6.41693 54.5598 9.88339 60.2545 15.4906C65.9492 21.0952 69.4742 28.8405 69.4742 37.3955C69.4742 43.1729 67.8568 48.5935 65.0484 53.2347C62.3517 57.6865 58.5506 61.4192 54.0216 64.0595V64.0622ZM32.9913 74.4698L33.3065 78.6856C33.5519 81.9544 32.0822 84.1529 30.0854 85.2397C29.1679 85.7365 28.1305 85.989 27.0958 85.9863C26.0668 85.9945 25.0294 85.7393 24.1035 85.237C22.1039 84.1529 20.637 81.9544 20.8824 78.6856L21.4541 71.072C15.2045 68.0941 9.90856 63.4721 6.14091 57.7798C2.25613 51.9118 0 44.9075 0 37.3982C0 27.0702 4.25569 17.7193 11.13 10.9538C18.0072 4.18555 27.5086 0 38 0C48.4914 0 57.9956 4.18555 64.87 10.9538C71.7471 17.722 76 27.0702 76 37.3982C76 44.9103 73.7411 51.9118 69.8591 57.7798C66.0914 63.4721 60.7928 68.0913 54.5459 71.0747L55.1176 78.6883C55.363 81.9572 53.8961 84.1556 51.8965 85.2425C50.9706 85.7448 49.9332 86 48.9069 86C47.8807 86 46.8405 85.7448 45.9146 85.2425C43.9178 84.1556 42.4481 81.9599 42.6935 78.6883L43.0087 74.4726C42.582 74.5275 42.1497 74.5741 41.7119 74.618C40.4513 74.7388 39.2103 74.8019 38 74.8019C36.7897 74.8019 35.5459 74.7388 34.2881 74.618C33.8503 74.5769 33.418 74.5275 32.9913 74.4726V74.4698ZM48.1094 46.1097C48.1094 47.1197 47.2783 47.9403 46.2492 47.9403C45.2202 47.9403 44.3891 47.1224 44.3891 46.1097V31.7169C44.3891 30.7068 45.2202 29.8862 46.2492 29.8862C47.2783 29.8862 48.1094 30.7041 48.1094 31.7169V46.1097ZM53.4192 46.1097C53.4192 47.1197 52.5881 47.9403 51.5591 47.9403C50.53 47.9403 49.699 47.1224 49.699 46.1097V31.7169C49.699 30.7068 50.53 29.8862 51.5591 29.8862C52.5881 29.8862 53.4192 30.7041 53.4192 31.7169V46.1097ZM48.101 56.2401L46.8907 72.362L46.8795 72.4965L46.3942 78.9408C46.2743 80.5657 46.8739 81.5894 47.6994 82.0368C48.0647 82.2344 48.483 82.3359 48.9069 82.3359C49.3308 82.3359 49.7492 82.2344 50.1117 82.0368C50.9372 81.5894 51.5368 80.5657 51.4141 78.9408L50.7559 70.158L50.7448 70.0098L50.2344 63.2141V63.1702L50.2288 63.1263L49.7129 56.2401C49.4452 56.2593 49.1775 56.2703 48.9069 56.2703C48.6364 56.2703 48.3659 56.2593 48.101 56.2401ZM27.9018 56.2401C27.6369 56.2593 27.3664 56.2703 27.0958 56.2703C26.8253 56.2703 26.5548 56.2593 26.2899 56.2401L25.2552 70.0181V70.062L25.2497 70.1059L25.2441 70.1498L24.5832 78.9408C24.4632 80.5657 25.06 81.5866 25.8883 82.0368C26.2536 82.2344 26.672 82.3359 27.0958 82.3359C27.5086 82.3442 27.9269 82.2399 28.3006 82.0395C29.1261 81.5921 29.7257 80.5684 29.6058 78.9436L29.1205 72.4992L29.1094 72.3647L27.899 56.2428L27.9018 56.2401ZM27.0958 27.9897C25.3166 27.9897 23.6991 28.6868 22.5139 29.8121L22.4274 29.9027C21.2282 31.0828 20.4864 32.7077 20.4864 34.4944V46.1124C20.4864 47.9046 21.2282 49.5295 22.4218 50.7042C23.621 51.8871 25.2748 52.6144 27.0958 52.6144C28.9169 52.6144 30.5707 51.8843 31.7615 50.7096C32.9635 49.5295 33.7025 47.9019 33.7025 46.1097V34.4917C33.7025 32.7049 32.9579 31.0801 31.7615 29.8999C30.5679 28.717 28.9169 27.9897 27.0958 27.9897Z" fill="#3B6552"/>
</svg>
