<svg width="66" height="91" viewBox="0 0 66 91" fill="none" xmlns="http://www.w3.org/2000/svg">
<g id="Group 14802">
<path id="Vector" d="M58.7937 15.0059C56.7079 15.0059 54.8922 16.4314 54.412 18.4572L48.8148 41.9564C47.8845 45.8729 47.4193 49.8795 47.4043 53.901V68.9819C45.7837 68.1866 43.998 67.7665 42.1823 67.7514L12.9809 67.6164C7.17359 67.5714 2.43174 72.2232 2.38672 78.0305C2.38672 78.0605 2.38672 78.0905 2.38672 78.1205V84.0478C2.38672 84.8731 3.06198 85.5484 3.8873 85.5484H63.9107C64.541 85.5484 65.1112 85.1432 65.3213 84.558C65.3813 84.3929 65.4113 84.2279 65.4113 84.0478V19.5076C65.4113 17.6019 64.1958 15.9212 62.4101 15.276V12.0047C64.0608 12.0047 65.4113 10.6542 65.4113 9.00352V3.00117C65.4113 1.35053 64.0608 0 62.4101 0H57.9084C56.2577 0 54.9072 1.35053 54.9072 3.00117V9.00352C54.9072 10.6542 56.2577 12.0047 57.9084 12.0047H59.409V15.0059H58.7787H58.7937ZM57.9234 3.00117H62.4252V9.00352H57.9234V3.00117ZM51.741 42.6466L57.3382 19.1625C57.5032 18.4872 58.1035 18.007 58.7937 18.007H60.9246C61.7499 18.007 62.4252 18.6823 62.4252 19.5076V80.8516L50.4205 70.9927V53.886C50.4205 50.0896 50.8706 46.3231 51.741 42.6316V42.6466ZM5.4029 82.5322V78.1055C5.4029 73.9639 8.76421 70.6026 12.9058 70.6026H12.9809L42.1823 70.7376C44.2531 70.7376 46.2488 71.4729 47.8545 72.7784L59.7391 82.5322H5.4029Z" fill="#456453"/>
<path id="Vector_2" d="M65.4269 87.0342H2.40234V90.0354H65.4269V87.0342Z" fill="#456453"/>
<path id="Vector_3" d="M5.55217 42.1215L1.8007 39.3154L0 41.7163L6.00234 46.2181C6.54255 46.6232 7.26284 46.6232 7.80305 46.2181L13.8054 41.7163L12.0047 39.3154L8.61336 41.8514C10.0689 30.2969 19.1775 21.1883 30.747 19.7177L28.211 23.094L30.6119 24.8947L35.1137 18.8924C35.5189 18.3522 35.5189 17.6319 35.1137 17.0917L30.6119 11.0894L28.211 12.8901L31.0171 16.6415C17.5719 18.0371 6.93271 28.6612 5.55217 42.1065V42.1215Z" fill="#456453"/>
<path id="Vector_4" d="M18.6797 46.0531L21.5308 46.9835C24.562 37.7399 33.1904 31.4974 42.9142 31.5124V28.5113C31.8848 28.4962 22.101 35.579 18.6797 46.0531Z" fill="#456453"/>
<path id="Vector_5" d="M20.4113 54.021H17.4102C17.4102 57.2923 18.0404 60.5485 19.2709 63.5947L22.047 62.4693C20.9665 59.7832 20.4113 56.9171 20.4113 54.036V54.021Z" fill="#456453"/>
</g>
</svg>
