<svg width="119" height="76" viewBox="0 0 119 76" fill="none" xmlns="http://www.w3.org/2000/svg">
<path id="Vector" d="M117.248 51.4462H114.691V32.1538C114.687 28.6041 111.828 25.7278 108.3 25.7231H105.395V6.43077C105.39 2.88098 102.532 0.00467692 99.004 0H19.9867C16.4588 0.00467692 13.6003 2.88098 13.5956 6.43077V25.7231H10.6906C7.16268 25.7278 4.30412 28.6041 4.29947 32.1538V51.4462H1.74303C0.780877 51.4462 0 52.2319 0 53.2V62.5538C0 63.522 0.780877 64.3077 1.74303 64.3077H9.29615V74.2462C9.29615 75.2143 10.077 76 11.0392 76H22.6594C23.3752 76.0047 24.0189 75.5674 24.2862 74.8986L28.488 64.3077H90.5027L94.7138 74.8986C94.9811 75.5674 95.6248 76.0047 96.3406 76H107.961C108.923 76 109.704 75.2143 109.704 74.2462V64.3077H117.257C118.219 64.3077 119 63.522 119 62.5538V53.2C119 52.2319 118.219 51.4462 117.257 51.4462C117.255 51.4462 117.25 51.4462 117.248 51.4462ZM17.0817 6.43077C17.084 4.81723 18.3831 3.51003 19.9867 3.50769H99.004C100.608 3.51003 101.907 4.81723 101.909 6.43077V25.7231H93.7749V19.2923C93.7726 16.3879 91.4323 14.0331 88.5458 14.0308H67.6295C64.743 14.0331 62.4027 16.3879 62.4004 19.2923V25.7231H56.5903V19.2923C56.588 16.3879 54.2477 14.0331 51.3612 14.0308H30.4449C27.5584 14.0331 25.2181 16.3879 25.2158 19.2923V25.7231H17.0817V6.43077ZM90.2888 25.7231H65.8865V19.2923C65.8865 18.3242 66.6673 17.5385 67.6295 17.5385H88.5458C89.508 17.5385 90.2888 18.3242 90.2888 19.2923V25.7231ZM53.1043 25.7231H28.7019V19.2923C28.7019 18.3242 29.4827 17.5385 30.4449 17.5385H51.3612C52.3234 17.5385 53.1043 18.3242 53.1043 19.2923V25.7231ZM10.6906 29.2308H108.3C109.904 29.2331 111.203 30.5403 111.205 32.1538V37.4154H7.78552V32.1538C7.78785 30.5403 9.08699 29.2331 10.6906 29.2308ZM7.78552 40.9231H111.205V51.4462H7.78552V40.9231ZM21.4788 72.4923H12.7822V64.3077H24.7324L21.4788 72.4923ZM106.209 72.4923H97.512L94.2583 64.3077H106.209V72.4923ZM115.505 60.8H3.48606V54.9538H115.505V60.8Z" fill="white"/>
</svg>
