<svg width="92" height="92" viewBox="0 0 92 92" fill="none" xmlns="http://www.w3.org/2000/svg">
<path d="M44.0099 48.39L57.0899 58.2C57.6899 58.65 58.3799 58.86 59.0399 58.86C60.0299 58.86 61.0199 58.41 61.6499 57.54C62.7299 56.1 62.4299 54.06 60.9899 52.95L49.2299 44.13V26.16C49.2299 24.36 47.7599 22.89 45.9599 22.89C44.1599 22.89 42.6899 24.36 42.6899 26.16V45.78C42.6899 46.8 43.1699 47.79 44.0099 48.39Z" fill="#3B6552"/>
<path d="M45.78 91.56C71.01 91.56 91.56 71.01 91.56 45.78C91.56 20.55 71.01 0 45.78 0C20.55 0 0 20.55 0 45.78C0 71.01 20.55 91.56 45.78 91.56ZM9.81 42.51H6.72C8.31 23.49 23.49 8.28 42.51 6.72V9.81C42.51 11.61 43.98 13.08 45.78 13.08C47.58 13.08 49.05 11.61 49.05 9.81V6.72C68.07 8.31 83.28 23.49 84.84 42.51H81.75C79.95 42.51 78.48 43.98 78.48 45.78C78.48 47.58 79.95 49.05 81.75 49.05H84.84C83.25 68.07 68.07 83.28 49.05 84.84V81.75C49.05 79.95 47.58 78.48 45.78 78.48C43.98 78.48 42.51 79.95 42.51 81.75V84.84C23.49 83.25 8.28 68.07 6.72 49.05H9.81C11.61 49.05 13.08 47.58 13.08 45.78C13.08 43.98 11.61 42.51 9.81 42.51Z" fill="#3B6552"/>
</svg>
