<svg width="101" height="92" viewBox="0 0 101 92" fill="none" xmlns="http://www.w3.org/2000/svg">
<path d="M2.69978 0C1.19359 0 0 1.186 0 2.68263V89.3174C0 90.814 1.19359 92 2.69978 92H61.7822C63.2884 92 64.482 90.7858 64.482 89.3174V84.6581H74.8832V89.3174C74.8832 90.814 76.0768 92 77.583 92H90.002C91.5082 92 92.7017 90.7858 92.7017 89.3174V84.6581H94.691C96.1972 84.6581 97.3908 83.4721 97.3908 81.9754V48.8521H98.3002C98.4992 48.8521 98.6981 48.8521 98.897 48.7956C100.119 48.5132 101 47.4401 101 46.1977V37.3874C101 37.1897 101 36.992 100.943 36.7943C100.659 35.5801 99.5791 34.7047 98.3286 34.7047H65.5051V2.68263C65.5051 1.186 64.2831 0 62.8053 0H2.69978ZM5.39955 5.36525H30.0385V86.6347H5.39955V5.36525ZM35.4097 5.36525H60.0487V34.7047H41.1218C40.9229 34.7047 40.7524 34.7047 40.5535 34.7612C40.4966 34.7612 40.4398 34.7894 40.3829 34.8177C40.2409 34.8459 40.1272 34.9024 39.9851 34.9589C39.9282 34.9589 39.8714 35.0153 39.843 35.0436C39.7293 35.1001 39.6156 35.1848 39.502 35.2413C39.4451 35.2977 39.3599 35.3542 39.303 35.4107C39.2462 35.4672 39.1609 35.5236 39.1041 35.6083C39.0473 35.6931 38.962 35.7495 38.9052 35.8343C38.8483 35.919 38.7915 36.0037 38.7347 36.0884C38.7062 36.1449 38.6494 36.2296 38.621 36.2861C38.5642 36.399 38.5357 36.512 38.4789 36.6532C38.4789 36.7096 38.4505 36.7661 38.4221 36.8508C38.3936 37.0485 38.3652 37.2179 38.3652 37.4156V46.2259C38.3652 46.4236 38.3652 46.593 38.4221 46.7907C38.4221 46.8471 38.4505 46.9036 38.4789 46.9883C38.5073 47.1013 38.5642 47.2425 38.621 47.3554C38.6494 47.4119 38.6778 47.4966 38.7347 47.5531C38.7915 47.6378 38.8483 47.7508 38.9052 47.8355C38.962 47.892 39.0188 47.9767 39.0757 48.0331C39.1609 48.1179 39.2178 48.2026 39.303 48.2873C39.3599 48.3438 39.4167 48.372 39.4735 48.4285C39.5872 48.5132 39.7009 48.5697 39.8146 48.6262C39.8714 48.6262 39.9282 48.6826 39.9567 48.7109C40.0703 48.7673 40.2124 48.8238 40.3545 48.8521C40.4114 48.8521 40.4682 48.8803 40.525 48.9085C40.724 48.9368 40.8945 48.965 41.0934 48.965H42.0028V82.0884C42.0028 83.585 43.2248 84.771 44.7026 84.771H46.6635V86.7477H35.3813V5.36525H35.4097ZM20.7172 38.7428C19.211 38.7428 18.0174 39.957 18.0174 41.4254V50.5463C18.0174 52.0147 19.211 53.229 20.7172 53.229C22.2234 53.229 23.417 52.043 23.417 50.5463V41.4254C23.417 39.9288 22.2234 38.7428 20.7172 38.7428ZM43.8216 40.07H95.572V43.4868H43.8216V40.07ZM47.4308 48.8803H91.9629V61.418H47.4308V48.8803ZM65.4482 52.4665C63.942 52.4665 62.7484 53.6525 62.7484 55.1492C62.7484 56.6458 63.942 57.8318 65.4482 57.86H73.917C75.4232 57.86 76.6168 56.674 76.6168 55.1774C76.6168 53.6808 75.3948 52.4948 73.917 52.4948H65.4482V52.4665ZM47.4308 66.7833H91.9629V79.3211H47.4308V66.7833ZM65.4482 70.3696C63.942 70.3696 62.7484 71.5556 62.7484 73.0522C62.7484 74.5488 63.942 75.7348 65.4482 75.7348H73.917C75.4232 75.7348 76.6168 74.5488 76.6168 73.0522C76.6168 71.5556 75.3948 70.3696 73.917 70.3696H65.4482ZM52.0914 84.6863H59.0824V86.663H52.0914V84.6863ZM80.2828 84.6863H87.2738V86.663H80.2828V84.6863Z" fill="#3B6552"/>
</svg>
