<svg width="81" height="81" viewBox="0 0 81 81" fill="none" xmlns="http://www.w3.org/2000/svg">
<g clip-path="url(#clip0_715745_4419)">
<path d="M29.1273 81C23.7732 81 18.8322 79.6392 14.4501 76.9581C6.80373 72.2763 1.66023 63.4473 0.331827 52.7391C-0.972273 42.2334 1.52253 30.9258 7.16013 21.7161C15.3735 8.3187 28.8438 0 42.3222 0C47.8707 0 52.9899 1.4094 57.5421 4.1958C62.5641 7.2657 63.8763 13.3245 60.7497 18.9216C56.6349 26.2764 55.9545 35.8182 63.6981 40.5567C66.1119 42.039 67.5942 44.8659 67.7643 48.3327C67.9182 51.6456 66.8814 55.3149 64.8321 58.6521C56.5215 72.2277 42.5085 80.9919 29.1354 80.9919L29.1273 81ZM42.3222 4.0662C30.2451 4.0662 18.1032 11.6397 10.635 23.8383C5.46723 32.2785 3.18303 42.6303 4.37373 52.2369C5.54823 61.7139 9.99513 69.4575 16.5804 73.4913C20.3145 75.7755 24.5346 76.9338 29.1354 76.9338C41.1234 76.9338 53.7756 68.9229 61.3653 56.5299C62.9934 53.8731 63.8196 51.03 63.7062 48.5271C63.609 46.4373 62.8314 44.793 61.584 44.0316C52.8927 38.7018 51.135 27.8154 57.21 16.9452C58.7814 14.1345 59.2593 10.0197 55.428 7.6707C51.5238 5.2812 47.1255 4.0743 42.3384 4.0743L42.3222 4.0662Z" fill="#3B6552"/>
<path d="M43.6428 56.4246C40.8321 56.4246 38.3211 55.2744 36.7416 53.2737C33.5826 49.2642 34.9029 42.9381 39.69 39.1635C41.9175 37.4058 44.5824 36.4419 47.1906 36.4419C50.0013 36.4419 52.5123 37.5921 54.0918 39.5928C55.6713 41.6016 56.1978 44.2179 55.566 46.9557C54.9666 49.5315 53.4033 51.921 51.1434 53.703C48.924 55.4607 46.2591 56.4246 43.6428 56.4246ZM47.1906 40.5162C45.4896 40.5162 43.7157 41.1723 42.2091 42.363C39.1878 44.7444 38.1672 48.5109 39.9411 50.7627C40.7592 51.7914 42.0714 52.3665 43.6509 52.3665C45.3519 52.3665 47.1258 51.7104 48.6324 50.5197C50.1633 49.3128 51.2163 47.7333 51.6051 46.0566C51.9534 44.5419 51.7023 43.1487 50.9004 42.1281C50.0823 41.0913 48.7701 40.5243 47.1906 40.5243V40.5162Z" fill="#3B6552"/>
<path d="M15.9651 43.6833C14.8311 43.6833 13.7214 43.3674 12.7494 42.7761C11.3481 41.9175 10.3599 40.5648 9.97921 38.961C9.59041 37.3653 9.85771 35.7048 10.7163 34.3035C11.8422 32.4567 13.8105 31.3632 15.9732 31.3632C17.1072 31.3632 18.2169 31.6791 19.1889 32.2704C20.5902 33.129 21.5784 34.4817 21.9591 36.0855C22.3398 37.6893 22.0806 39.3417 21.222 40.743C20.088 42.5898 18.1278 43.6914 15.9651 43.6914V43.6833ZM15.9651 35.4294C15.228 35.4294 14.5557 35.802 14.175 36.4338C13.8834 36.9117 13.7943 37.4706 13.9239 38.0133C14.0535 38.556 14.3937 39.0177 14.8635 39.3093C15.1956 39.5118 15.5682 39.6171 15.957 39.6171C16.6941 39.6171 17.3583 39.2445 17.7471 38.6127C18.0387 38.1348 18.1278 37.5759 17.9982 37.0332C17.8686 36.4905 17.5365 36.0288 17.0586 35.7372C16.7265 35.5347 16.3539 35.4294 15.9732 35.4294H15.9651Z" fill="#3B6552"/>
<path d="M26.7786 28.3581C25.6446 28.3581 24.5349 28.0422 23.5629 27.4509C22.1616 26.5923 21.1734 25.2396 20.7927 23.6358C20.4039 22.032 20.6712 20.3796 21.5298 18.9783C22.6557 17.1396 24.624 16.038 26.7867 16.038C27.9207 16.038 29.0304 16.3539 30.0024 16.9452C32.9022 18.7191 33.8094 22.518 32.0355 25.4178C30.9096 27.2565 28.9413 28.3581 26.7786 28.3581ZM26.7786 20.1042C26.0415 20.1042 25.3692 20.4768 24.9885 21.1086C24.6969 21.5865 24.6078 22.1454 24.7374 22.6881C24.867 23.2308 25.1991 23.6925 25.677 23.9841C26.0091 24.1866 26.3817 24.2919 26.7705 24.2919C27.5076 24.2919 28.1799 23.9193 28.5606 23.2875C29.16 22.2993 28.8522 21.0114 27.8721 20.412C27.54 20.2095 27.1674 20.1042 26.7786 20.1042Z" fill="#3B6552"/>
<path d="M30.9257 72.6894C29.7917 72.6894 28.682 72.3735 27.71 71.7822C24.8102 70.0083 23.903 66.2094 25.6769 63.3096C26.8109 61.4628 28.7711 60.3612 30.9338 60.3612C32.0678 60.3612 33.1775 60.6771 34.1495 61.2684C37.0493 63.0423 37.9565 66.8493 36.1826 69.741C35.0486 71.5878 33.0884 72.6894 30.9257 72.6894ZM30.9338 64.4355C30.1967 64.4355 29.5244 64.8081 29.1437 65.4399C28.5443 66.42 28.8521 67.716 29.8322 68.3235C30.1643 68.526 30.5369 68.6313 30.9257 68.6313C31.6628 68.6313 32.3351 68.2587 32.7158 67.6269C33.3152 66.6387 33.0074 65.3508 32.0273 64.7514C31.6952 64.5489 31.3226 64.4436 30.9338 64.4436V64.4355Z" fill="#3B6552"/>
<path d="M15.2117 62.2566C14.0777 62.2566 12.968 61.9407 11.996 61.3494C10.5947 60.4908 9.60649 59.1381 9.22579 57.5343C8.83699 55.9386 9.10429 54.2781 9.96289 52.8768C11.0888 51.0381 13.0571 49.9365 15.2198 49.9365C16.3538 49.9365 17.4635 50.2524 18.4355 50.8437C19.8368 51.7023 20.825 53.055 21.2057 54.6588C21.5945 56.2545 21.3272 57.915 20.4686 59.3163C19.3427 61.1631 17.3744 62.2647 15.2117 62.2647V62.2566ZM15.2198 54.0027C14.4827 54.0027 13.8104 54.3753 13.4297 55.0071C13.1381 55.485 13.049 56.0439 13.1786 56.5866C13.3082 57.1293 13.6484 57.591 14.1182 57.8826C14.4503 58.0851 14.8229 58.1904 15.2036 58.1904C15.9407 58.1904 16.613 57.8178 16.9937 57.186C17.2853 56.7081 17.3744 56.1492 17.2448 55.6065C17.1152 55.0638 16.7831 54.6021 16.3052 54.3105C15.9731 54.108 15.6005 54.0027 15.2117 54.0027H15.2198Z" fill="#3B6552"/>
<path d="M44.8175 21.8214C43.6835 21.8214 42.5738 21.5055 41.6018 20.9142C40.2005 20.0556 39.2123 18.7029 38.8316 17.0991C38.4509 15.4953 38.7101 13.8429 39.5687 12.4416C40.6946 10.6029 42.6629 9.50128 44.8256 9.50128C45.9596 9.50128 47.0693 9.81718 48.0413 10.4085C49.4426 11.2671 50.4308 12.6198 50.8115 14.2236C51.1922 15.8274 50.933 17.4798 50.0744 18.8811C48.9485 20.7279 46.9802 21.8214 44.8175 21.8214ZM44.8175 13.5675C44.0804 13.5675 43.4162 13.9401 43.0274 14.5638C42.7358 15.0417 42.6467 15.6006 42.7763 16.1514C42.9059 16.7022 43.238 17.1558 43.7159 17.4474C44.048 17.6499 44.4206 17.7552 44.8094 17.7552C45.5465 17.7552 46.2188 17.3826 46.5995 16.7508C46.8911 16.2729 46.9802 15.714 46.8506 15.1713C46.721 14.6286 46.3889 14.1669 45.911 13.8753C45.5789 13.6728 45.2063 13.5675 44.8256 13.5675H44.8175Z" fill="#3B6552"/>
<path d="M80.9998 12.9357C80.9998 12.8061 79.8496 0.0405273 74.7709 0.0405273C69.6922 0.0405273 68.542 12.8061 68.542 12.9357C68.542 14.3775 69.0604 15.7059 69.9109 16.7508C69.5626 22.8177 69.3439 31.6872 69.3439 39.9492C69.3439 50.4063 69.7003 60.2478 70.3483 67.6836C71.3365 79.056 72.511 80.9676 74.7709 80.9676C77.0308 80.9676 78.2053 79.0479 79.1935 67.6836C79.8415 60.2559 80.1979 50.4063 80.1979 39.9492C80.1979 31.6953 79.9792 22.8177 79.6309 16.7508C80.4895 15.7059 80.9998 14.3775 80.9998 12.9357ZM76.0021 27.9936H73.5316C73.6126 24.7374 73.7179 21.6513 73.8475 18.9702C74.1472 19.0107 74.455 19.0431 74.7709 19.0431C75.0868 19.0431 75.3865 19.0107 75.6943 18.9702C75.8239 21.6513 75.9292 24.7293 76.0102 27.9936H76.0021ZM74.7709 4.60893C75.7996 6.44763 76.9498 11.1294 76.9498 12.9357C76.9498 14.0697 75.9697 15.0012 74.7709 15.0012C73.5721 15.0012 72.592 14.0778 72.592 12.9357C72.592 11.1294 73.7341 6.45573 74.7709 4.60893ZM74.7709 71.1342C74.0257 64.7352 73.3939 53.9298 73.3939 39.9411C73.3939 37.3329 73.4182 34.6599 73.4587 32.0355H76.0831C76.1236 34.6599 76.1479 37.3248 76.1479 39.9411C76.1479 53.9298 75.5161 64.7433 74.7709 71.1342Z" fill="#3B6552"/>
</g>
<defs>
<clipPath id="clip0_715745_4419">
<rect width="81" height="81" fill="white"/>
</clipPath>
</defs>
</svg>
