<svg width="116" height="82" viewBox="0 0 116 82" fill="none" xmlns="http://www.w3.org/2000/svg">
<path d="M115.62 22.1401C115.56 21.9001 115.5 21.6601 115.38 21.4801L108.78 7.38007C108.33 6.42007 107.37 5.82007 106.32 5.82007C105.27 5.82007 104.31 6.45007 103.86 7.38007L97.26 21.4801C97.14 21.6901 97.08 21.9301 97.02 22.1701C96.99 22.3501 96.96 22.5601 96.96 22.7101V75.0601C96.96 76.8301 97.65 78.5101 98.91 79.7701C100.14 81.0001 101.85 81.7201 103.62 81.7201H108.96C110.73 81.7201 112.41 81.0301 113.67 79.7701C114.93 78.5101 115.62 76.8301 115.62 75.0601V22.7101C115.62 22.5301 115.62 22.3501 115.56 22.1701L115.62 22.1401ZM110.22 71.4301V75.0301C110.22 75.3601 110.1 75.6601 109.86 75.9001C109.65 76.1401 109.32 76.2601 108.99 76.2601H103.65C103.32 76.2601 103.02 76.1401 102.78 75.9001C102.54 75.6901 102.42 75.3601 102.42 75.0301V71.4301H110.19H110.22ZM103.98 19.9501L106.32 14.9401L108.66 19.9501H103.98ZM110.22 25.3801V66.0001H102.45V25.3801H110.22Z" fill="#3B6552"/>
<path d="M89.1 5.79H21.09V2.73C21.09 1.23 19.86 0 18.36 0H12.12C8.88 0 5.85 1.26 3.54 3.54C1.26 5.82 0 8.88 0 12.12V68.34C0 75.69 6 81.69 13.35 81.69H89.07C90.57 81.69 91.8 80.46 91.8 78.96V8.52C91.8 7.02 90.57 5.79 89.07 5.79H89.1ZM86.37 11.22V76.23H13.38C9 76.23 5.46 72.69 5.46 68.31C5.46 64.2 8.82 60.84 12.93 60.84H18.39C19.89 60.84 21.12 59.61 21.12 58.11V11.19H86.4L86.37 11.22ZM5.46 57.81V12.12C5.46 10.35 6.15 8.67 7.41 7.38C8.67 6.12 10.35 5.43 12.15 5.43H15.66V55.41H12.93C10.23 55.41 7.62 56.25 5.46 57.78V57.81Z" fill="#3B6552"/>
<path d="M36.9899 61.4099H38.6099V63.5399C38.6099 65.0399 39.8399 66.2699 41.3399 66.2699C42.8399 66.2699 44.0699 65.0399 44.0699 63.5399V61.4099H63.4499V63.5399C63.4499 65.0399 64.6799 66.2699 66.1799 66.2699C67.6799 66.2699 68.9099 65.0399 68.9099 63.5399V61.4099H69.7499C73.4099 61.4099 76.4099 58.4099 76.4099 54.7499V39.5699C76.4099 36.1799 73.9499 33.4199 70.6799 32.9699V27.8399C70.6799 26.0699 69.9899 24.3899 68.7299 23.1299C67.4699 21.8699 65.7899 21.1799 64.0199 21.1799H42.7799C41.0099 21.1799 39.3299 21.8699 38.0699 23.1299C36.8099 24.3899 36.1199 26.0699 36.1199 27.8399V32.9699C32.8499 33.4199 30.3599 36.1799 30.3599 39.5699V54.7499C30.3599 58.4099 33.3599 61.4099 37.0199 61.4099H36.9899ZM42.2399 52.1399H64.3799C65.8799 52.1399 67.1099 50.9099 67.1099 49.4099V39.5399C67.1099 38.8799 67.6499 38.3099 68.3399 38.3099H69.7499C70.4099 38.3099 70.9799 38.8499 70.9799 39.5399V54.7199C70.9799 55.3799 70.4399 55.9499 69.7499 55.9499H37.0199C36.3599 55.9499 35.7899 55.4099 35.7899 54.7199V39.5399C35.7899 38.8799 36.3299 38.3099 37.0199 38.3099H38.3099C38.9699 38.3099 39.5399 38.8499 39.5399 39.5399V49.4099C39.5399 50.9099 40.7699 52.1399 42.2699 52.1399H42.2399ZM65.2199 33.6599C63.0299 34.7999 61.6499 37.0499 61.6499 39.5399V46.6799H44.9399V39.5399C44.9399 37.1099 43.6199 34.8899 41.5199 33.7199V27.8099C41.5199 27.4799 41.6399 27.1799 41.8799 26.9399C42.1199 26.6999 42.4199 26.5799 42.7499 26.5799H63.9899C64.3199 26.5799 64.6199 26.6999 64.8599 26.9399C65.0999 27.1799 65.2199 27.4799 65.2199 27.8099V33.6299V33.6599Z" fill="#3B6552"/>
</svg>
