<svg width="94" height="115" viewBox="0 0 94 115" fill="none" xmlns="http://www.w3.org/2000/svg">
<path d="M72.5608 86.031H72.4992H22.0812C22.0812 86.031 21.927 86.031 21.8345 86.031C20.3544 86.0916 19.2442 87.3042 19.3059 88.7593C19.3676 90.2143 20.6011 91.3056 22.0812 91.245H72.4683C73.9485 91.245 75.1511 90.1234 75.1511 88.6683C75.1511 87.2133 74.0102 86.031 72.53 86.031H72.5608Z" fill="#3B6552"/>
<path d="M72.5608 97.7627H72.4992H22.0812C22.0812 97.7627 21.927 97.7627 21.8345 97.7627C20.3544 97.8233 19.2442 99.0662 19.3059 100.491C19.3676 101.916 20.6319 103.037 22.0812 102.977H72.4683C73.9485 102.977 75.1511 101.855 75.1511 100.4C75.1511 98.9449 74.0102 97.7627 72.53 97.7627H72.5608Z" fill="#3B6552"/>
<path d="M3.51695 114.708H91.0623C92.5424 114.708 93.7142 113.526 93.7142 112.101V2.60701C93.7142 1.15193 92.5116 0 91.0623 0H3.51695C3.51695 0 3.36276 0 3.27025 0C1.91344 0.121256 0.86499 1.24288 0.86499 2.60701V112.132C0.86499 113.587 2.06762 114.739 3.51695 114.739V114.708ZM6.1689 5.1837H88.4103V109.494H6.1689V5.21401V5.1837Z" fill="#3B6552"/>
<path d="M47.2742 66.4781C62.6309 66.4781 75.1197 54.2009 75.1197 39.1045C75.1197 24.0081 62.6309 11.731 47.2742 11.731C31.9176 11.731 19.4287 24.0081 19.4287 39.1045C19.4287 54.2009 31.9176 66.4781 47.2742 66.4781ZM47.2742 16.945C59.7631 16.945 69.8158 26.8273 69.8158 39.1045C69.8158 51.3817 59.7631 61.2641 47.2742 61.2641C34.7854 61.2641 24.7326 51.3817 24.7326 39.1045C24.7326 26.8273 34.7854 16.945 47.2742 16.945Z" fill="#3B6552"/>
<path d="M72.5608 74.2996H72.4992H22.0812C22.0812 74.2996 21.927 74.2996 21.8345 74.2996C20.3544 74.3602 19.2442 75.6031 19.3059 77.0278C19.3676 78.4829 20.6319 79.5742 22.0812 79.5136H72.4683C73.9485 79.5136 75.1511 78.3919 75.1511 76.9369C75.1511 75.4818 74.0102 74.2996 72.53 74.2996H72.5608Z" fill="#3B6552"/>
<path d="M44.1597 54.0501V47.3507H37.1598V44.6224H44.1597V41.8638H37.1598V39.1356H42.587L34.9087 27.0403H41.4769L45.239 34.346C46.0099 35.9223 46.4724 37.1348 47.0583 38.5596H47.12C47.7367 37.2561 48.2918 35.801 49.001 34.3156L52.9481 27.0403H59.5164L51.1288 39.1356H56.6485V41.8638H49.6486V44.6224H56.6485V47.3507H49.6486V54.0501H44.098H44.1597Z" fill="#3B6552"/>
</svg>
