<svg width="110" height="99" viewBox="0 0 110 99" fill="none" xmlns="http://www.w3.org/2000/svg">
<path d="M3.27323 65.8186H18.4409C7.15332 71.511 0.162742 82.6048 0.162742 94.9276C0.162742 96.6094 1.60575 98.0649 3.27323 98.0649H64.7454C66.3808 98.0649 67.8559 96.6094 67.8559 94.9276C67.8559 82.5724 60.8653 71.511 49.5778 65.8186C52.6562 62.0991 54.3237 57.5064 54.3237 52.7843C54.3237 48.4179 52.9769 44.278 50.3794 40.7202C52.4317 39.3618 54.6123 38.2945 56.889 37.5182C57.9472 37.1625 58.781 36.1598 58.9734 35.0601C59.1658 33.9605 58.6848 32.7314 57.7548 32.0522C54.003 29.3354 51.8866 25.1307 51.8866 20.538C51.8866 12.6786 58.2038 6.30694 65.996 6.30694C73.7883 6.30694 80.1054 12.6786 80.1054 20.538C80.1054 25.1307 77.9569 29.3354 74.2051 32.0846C73.3073 32.7638 72.8262 33.9605 72.9866 35.0925C73.179 36.2245 73.9807 37.1948 75.0709 37.5506C85.0758 40.9143 92.1946 49.5176 93.4132 59.5764H59.5506C58.781 59.6087 57.9793 59.9968 57.4342 60.6113C56.857 61.2259 56.5684 62.0668 56.6004 62.843C56.6646 64.5249 58.2038 65.851 59.8071 65.8186H106.561C107.33 65.8186 108.132 65.4952 108.709 64.8807C109.318 64.2661 109.671 63.4899 109.671 62.6813C109.671 61.8727 109.318 61.0965 108.709 60.482C108.1 59.8675 107.33 59.544 106.529 59.544H99.6662C98.5759 48.5473 91.7136 38.7149 81.5164 33.54C84.5948 29.8529 86.2623 25.2278 86.2623 20.5057C86.2623 9.21784 77.1553 0 65.9319 0C54.7085 0 45.6335 9.1855 45.6335 20.5057C45.6335 25.2601 47.3331 29.8852 50.4115 33.5723C48.712 34.4133 47.2369 35.2865 45.8901 36.1922C42.3627 33.6047 38.2582 32.2463 33.9612 32.2463C22.7699 32.2463 13.6629 41.4318 13.6629 52.7196C13.6629 55.0483 14.0477 57.3447 14.8173 59.5117H2.95256C2.18296 59.544 1.38128 59.9321 0.836148 60.5467C0.258945 61.1612 -0.0296578 62.0021 0.00240903 62.7783C0.0665428 64.4602 1.60575 65.7863 3.2091 65.7539L3.27323 65.8186ZM42.2345 64.2985C41.3366 64.9777 40.8556 66.1744 41.0159 67.3064C41.2083 68.4384 42.01 69.4087 43.1003 69.7645C53.041 73.0959 60.1598 81.6992 61.3784 91.7903H6.64025C7.85879 81.6992 14.9776 73.0959 24.9184 69.7645C25.9766 69.4087 26.8103 68.4061 27.0027 67.3064C27.1951 66.2067 26.7141 64.9777 25.7842 64.2985C22.0323 61.5816 19.9159 57.377 19.9159 52.7843C19.9159 44.9248 26.2331 38.5532 34.0253 38.5532C41.8176 38.5532 48.1348 44.9248 48.1348 52.7843C48.1348 57.377 45.9863 61.5816 42.2345 64.3308V64.2985Z" fill="#3B6552"/>
</svg>
