<svg width="126" height="75" viewBox="0 0 126 75" fill="none" xmlns="http://www.w3.org/2000/svg">
<path d="M25.6179 8.85045C26.1678 8.40152 26.847 8.14499 27.5585 8.14499H47.9025V6.0927H45.8325C44.1506 6.0927 42.7599 4.71383 42.7599 3.04635C42.7599 1.37888 44.1506 0 45.8325 0H116.858C118.54 0 119.931 1.37888 119.931 3.04635C119.931 4.71383 118.54 6.0927 116.858 6.0927H115.565V8.14499H117.99C119.446 8.14499 120.675 9.13906 120.998 10.55C121.386 12.3457 124.815 28.3792 124.815 33.2854V54.5457C125.074 56.1491 125.526 60.2216 123.489 62.6586C122.518 63.8131 121.128 64.4544 119.575 64.4544H107.188C106.314 70.3547 101.204 74.9082 95.0266 74.9082C88.8491 74.9082 83.7712 70.3868 82.8656 64.5185H41.1104C40.2048 70.3868 35.1269 74.9082 28.9493 74.9082C22.7717 74.9082 17.6291 70.3226 16.7882 64.3903H8.50832C3.59214 64.3903 1.00467 60.0933 0.745926 59.5802C0.487175 59.1313 0.357811 58.6182 0.357811 58.1051V46.6893C-1.0653 41.9755 2.20137 31.9707 2.36309 31.5217C3.88322 26.9041 19.1816 14.1415 25.6503 8.85045H25.6179ZM28.6582 14.2377C23.4509 18.5026 17.9202 23.2805 13.9097 27.0965L36.0325 26.4231L40.5605 14.2377H28.6259H28.6582ZM67.5348 6.0927H54.0154V8.14499H67.5348V6.0927ZM57.0556 14.2377L59.4167 26.359H84.4827V14.2377H57.088H57.0556ZM90.822 6.0927H73.6801V8.14499H90.822V6.0927ZM109.419 6.0927H96.9672V8.14499H109.419V6.0927ZM115.5 14.2377H90.628V29.4053C90.628 31.0728 89.2372 32.4517 87.5553 32.4517H56.8939C55.4061 32.4517 54.1447 31.4255 53.886 29.9825L50.9104 14.6546C50.9104 14.6546 50.9104 14.366 50.9104 14.2377H47.1262L41.078 30.4635C40.6576 31.6179 39.5256 32.4196 38.2965 32.4517L18.9876 33.0289L17.0793 42.7131H110.002V28.8922C110.002 27.2248 111.392 25.8459 113.074 25.8459H117.732C117.052 21.9017 116.179 17.4123 115.5 14.2377ZM118.67 33.2854C118.67 32.9327 118.637 32.4837 118.605 31.9707H116.147V42.7451H118.67V33.2854ZM118.67 48.8378H116.147V51.2749H118.67V48.8378ZM94.9943 68.8155C98.4227 68.8155 101.204 66.0577 101.204 62.6586C101.204 59.2596 98.4227 56.5018 94.9943 56.5018C91.5659 56.5018 88.7844 59.2596 88.7844 62.6586C88.7844 66.0577 91.5659 68.8155 94.9943 68.8155ZM28.917 68.8155C32.3453 68.8155 35.1269 66.0577 35.1269 62.6586C35.1269 59.2596 32.3453 56.5018 28.917 56.5018C25.4886 56.5018 22.707 59.2596 22.707 62.6586C22.707 66.0577 25.4886 68.8155 28.917 68.8155ZM6.43835 57.1111C6.85881 57.5921 7.60271 58.2655 8.44363 58.2655H17.4027C19.1816 53.6799 23.645 50.4091 28.8846 50.4091C34.1242 50.4091 38.6846 53.7441 40.4312 58.4258H83.4154C85.1619 53.7761 89.6577 50.4091 94.962 50.4091C100.266 50.4091 104.73 53.712 106.476 58.3617H118.767C118.799 58.1052 118.831 57.7524 118.831 57.3676H113.01C111.328 57.3676 109.937 55.9887 109.937 54.3213V48.8378H6.406V57.1111H6.43835ZM10.8047 42.7131L12.6806 33.2213L8.15254 33.3495C8.15254 33.3495 8.15254 33.3816 8.15254 33.4137C7.05287 36.7166 6.30898 40.4684 6.11492 42.7451H10.837L10.8047 42.7131Z" fill="#3B6552"/>
</svg>
