<svg width="116" height="129" viewBox="0 0 116 129" fill="none" xmlns="http://www.w3.org/2000/svg">
<path d="M114.231 82.0507L110.746 80.0106L113.07 76.0439C113.778 74.8255 113.381 73.2671 112.163 72.5588L93.5475 61.7069L102.813 13.5675C102.926 12.9158 102.813 12.2075 102.416 11.6691C102.019 11.1308 101.453 10.7341 100.773 10.5925L47.9866 0.448902C47.3065 0.307232 46.6265 0.448902 46.0882 0.845577C45.5215 1.21392 45.1532 1.80893 45.0115 2.48895L39.6564 30.3129L29.2295 24.2494C28.0111 23.5411 26.4528 23.9377 25.7444 25.1561L1.15055 67.3453C0.810547 67.9403 0.725545 68.6204 0.895549 69.272C1.06555 69.9237 1.49056 70.4904 2.08557 70.8304L5.57065 72.8705L3.24727 76.8372C2.90726 77.4322 2.82226 78.1122 2.99226 78.7639C3.16226 79.4156 3.58727 79.9823 4.18229 80.3223L27.4444 93.8942L25.9994 101.403C25.8577 102.083 25.9994 102.763 26.3961 103.329C26.7928 103.896 27.3878 104.264 28.0395 104.406L53.03 108.826L87.0591 128.66C87.4557 128.887 87.8807 129 88.3341 129C88.5608 129 88.7591 129 88.9858 128.915C89.6374 128.745 90.2041 128.32 90.5441 127.725L115.138 85.5357C115.846 84.3174 115.45 82.759 114.231 82.0507ZM68.897 47.3416L72.8921 28.1878L95.5592 24.1644L88.8724 58.9585L68.9253 47.3132L68.897 47.3416ZM97.2876 15.0976L96.5509 18.8943C96.4093 18.8943 96.2676 18.866 96.1259 18.8943L70.8804 23.3711L49.2332 10.0541C49.0916 9.96911 48.9216 9.94077 48.7516 9.8841L49.5166 5.94569L97.2876 15.1259V15.0976ZM47.7599 15.0976L67.8203 27.4511L64.2502 44.6215L44.3031 33.0046L47.7315 15.0976H47.7599ZM28.8611 29.8879L107.374 75.6472L85.3307 113.445L6.84568 67.7137L28.8895 29.9162L28.8611 29.8879ZM31.4679 99.7877L32.0912 96.5576L40.2797 101.318L31.4679 99.7594V99.7877ZM87.4274 122.937L31.9779 90.6075C31.7229 90.3525 31.3829 90.1825 31.0429 90.0408L8.94239 77.1489L9.96241 75.3922L84.9623 119.111C85.359 119.338 85.8124 119.451 86.2374 119.451C87.1157 119.451 87.9657 118.998 88.4474 118.176L108.168 84.3457L109.471 85.1107L87.4274 122.908V122.937Z" fill="#3B6552"/>
<path d="M65.0434 55.8701C60.8783 53.4334 56.0332 52.7817 51.3865 54.0001C46.7397 55.2184 42.8579 58.1935 40.4212 62.3302C38.0128 66.467 37.3328 71.3404 38.5512 75.9872C39.7695 80.634 42.7446 84.5157 46.8814 86.9524C49.7147 88.5958 52.8315 89.3892 55.9199 89.3892C62.125 89.3892 68.1601 86.1874 71.5035 80.464C73.9119 76.2989 74.5919 71.4538 73.3736 66.807C72.1552 62.1602 69.1802 58.2785 65.0434 55.8418V55.8701ZM67.1118 77.9139C65.3834 80.889 62.5784 83.014 59.2633 83.8924C55.9482 84.7707 52.4631 84.2891 49.4881 82.5607C46.513 80.8323 44.388 78.0272 43.5096 74.7122C42.6313 71.3688 43.1129 67.912 44.8413 64.937C46.5697 61.9619 49.3747 59.8369 52.6898 58.9585C53.7948 58.6752 54.8999 58.5335 56.0049 58.5335C58.2716 58.5335 60.4816 59.1285 62.4934 60.2902C65.4684 62.0186 67.5935 64.8236 68.4718 68.1387C69.3502 71.4821 68.8685 74.9389 67.1401 77.9139H67.1118Z" fill="#3B6552"/>
</svg>
