<svg width="90" height="126" viewBox="0 0 90 126" fill="none" xmlns="http://www.w3.org/2000/svg">
<path d="M54.6295 29.636L47.3202 14.8024C46.8903 13.9425 45.9689 13.3897 44.9247 13.3897C43.8806 13.3897 42.9285 13.9118 42.5293 14.8024L35.22 29.636L18.8508 32.0007C17.8374 32.1543 17.0082 32.8607 16.6703 33.8434C16.3632 34.7955 16.6089 35.9011 17.346 36.6074L29.2005 48.1549L26.4058 64.4626C26.2215 65.4761 26.6515 66.4895 27.4807 67.1038C27.9414 67.4416 28.4942 67.6259 29.047 67.6259C29.4769 67.6259 29.9069 67.5337 30.3062 67.3188L44.9554 59.6102L59.6047 67.3188C60.4954 67.7794 61.6317 67.718 62.4302 67.1038C63.2594 66.4895 63.6586 65.5068 63.5051 64.4933L60.7104 48.1856L72.5649 36.6381C73.302 35.9318 73.5477 34.8569 73.2406 33.8741C72.9335 32.8914 72.1043 32.185 71.0601 32.0314L54.6909 29.6667L54.6295 29.636ZM55.1209 47.6635L57.24 60.0095L46.1532 54.1743C45.3854 53.7751 44.4334 53.7751 43.6656 54.1743L32.5788 60.0095L34.6979 47.6635C34.8514 46.8036 34.575 45.913 33.9301 45.2987L24.9624 36.5767L37.339 34.7648C38.199 34.6419 38.9667 34.0891 39.366 33.2906L44.894 22.081L50.4221 33.2906C50.8213 34.0891 51.5584 34.6419 52.449 34.7648L64.8257 36.5767L55.858 45.2987C55.213 45.913 54.9366 46.8036 55.0902 47.6635H55.1209Z" fill="#3B6552"/>
<path d="M76.4978 71.281C83.6535 63.3881 87.5846 53.2534 87.5846 42.6887C87.5846 19.1331 68.4207 0 44.8959 0C21.371 0 2.20714 19.1639 2.20714 42.6887C2.20714 53.2534 6.13819 63.3881 13.2939 71.281L0.118769 113.018C-0.188344 114 0.118767 115.075 0.825127 115.782C1.5622 116.488 2.6371 116.703 3.61986 116.334L19.4669 110.376L29.3867 124.258C29.9702 125.087 30.9529 125.517 32.0278 125.333C33.0413 125.149 33.8705 124.412 34.1469 123.398L44.7116 85.3467C44.7116 85.3467 44.9573 85.3467 45.0801 85.3467L55.6448 123.398C55.9212 124.381 56.7504 125.149 57.7639 125.333C57.9175 125.333 58.071 125.364 58.2246 125.364C59.0845 125.364 59.9137 124.934 60.4051 124.227L70.3248 110.346L86.1719 116.304C87.1546 116.672 88.2295 116.457 88.9666 115.751C89.7037 115.045 89.9801 113.97 89.673 112.987L76.4978 71.2503V71.281ZM72.1982 75.427L82.9165 109.363L70.2941 104.633C69.1578 104.203 67.8679 104.603 67.1616 105.586L59.2995 116.58L50.516 84.9782C58.501 83.934 65.9638 80.6479 72.1675 75.4577L72.1982 75.427ZM39.245 84.9782L30.4615 116.58L22.5994 105.586C22.0774 104.848 21.2789 104.449 20.4189 104.449C20.1118 104.449 19.774 104.511 19.4669 104.633L6.84454 109.363L17.5628 75.427C23.7665 80.6172 31.26 83.9033 39.2143 84.9475L39.245 84.9782ZM82.2101 42.6887C82.2101 63.2653 65.4724 80.0337 44.8959 80.0337C24.3193 80.0337 7.55091 63.296 7.55091 42.6887C7.55091 22.0814 24.2886 5.37448 44.8959 5.37448C65.5032 5.37448 82.2101 22.1121 82.2101 42.6887Z" fill="#3B6552"/>
</svg>
