<svg width="110" height="110" viewBox="0 0 110 110" fill="none" xmlns="http://www.w3.org/2000/svg">
<path d="M93.6136 0.710638C92.6922 -0.210701 91.2181 -0.241412 90.266 0.649216L61.0288 27.3373C58.6948 29.4564 57.3435 32.4661 57.2821 35.5987L57.0978 43.4608L54.8559 45.457L49.0514 40.2668C49.6349 36.5507 49.6657 32.9882 49.1743 29.61C48.3144 23.7748 45.8575 18.7996 41.865 14.8378C36.0913 9.09483 29.6419 4.91809 23.6532 3.07541C20.4285 2.09265 17.3881 1.78553 14.5933 2.15407C11.5529 2.58403 8.91175 3.78177 6.70054 5.80872L6.23987 6.23867C6.23987 6.23867 5.99417 6.51508 5.7792 6.73006C3.81367 8.87985 2.58522 11.521 2.15526 14.5614C1.78673 17.3562 2.09384 20.3966 3.0766 23.6213C4.88857 29.61 9.06531 36.0901 14.839 41.8331C18.8008 45.7948 23.776 48.2517 29.6112 49.1424C33.7879 49.7566 37.6575 49.4495 40.268 49.0195L44.9668 54.2712L3.44514 91.4011C1.32605 93.3052 0.0976025 95.9464 0.00546859 98.8026C-0.0866653 101.659 0.988231 104.361 3.01518 106.358L3.23016 106.573C5.13426 108.384 7.62187 109.398 10.2938 109.398H10.5702C13.4263 109.306 16.0675 108.108 17.9716 105.958L54.5795 65.0508L89.3754 103.962C91.2795 106.081 93.9207 107.31 96.8075 107.402H97.0839C99.7251 107.402 102.213 106.388 104.148 104.576L104.363 104.361C106.389 102.334 107.464 99.6318 107.372 96.7756C107.28 93.9195 106.082 91.2783 103.933 89.3742L64.4071 54.0255L65.9734 52.2749L73.3441 52.1214H73.774C76.9066 52.06 79.9163 50.6779 82.0354 48.3746L108.724 19.1374C109.583 18.1854 109.553 16.7112 108.662 15.7899L93.5521 0.679928L93.6136 0.710638ZM14.3784 102.795C13.3649 103.931 11.9829 104.576 10.478 104.607C10.4166 104.607 10.3859 104.607 10.3245 104.607C8.88104 104.607 7.49903 104.054 6.48556 103.01L6.36271 102.887C5.37995 101.812 4.85786 100.43 4.88857 98.9868C4.91928 97.482 5.59493 96.0693 6.70054 95.0865L48.2222 57.9258L51.4162 61.4883L14.4398 102.795H14.3784ZM100.739 93.0903C101.875 94.1037 102.52 95.4857 102.551 96.9906V97.482C102.489 98.7104 101.998 99.8468 101.169 100.768L100.954 100.983C99.8787 102.058 98.3738 102.672 96.9304 102.58C95.3948 102.549 94.0128 101.904 93.03 100.768L42.9092 44.8121C42.4485 44.29 41.7729 44.0136 41.0972 44.0136C40.9436 44.0136 40.7594 44.0136 40.6365 44.075C38.1796 44.5664 34.4021 45.0271 30.2561 44.3821C25.4959 43.6758 21.4113 41.6795 18.2173 38.4548C13.0271 33.2646 9.28028 27.4909 7.6833 22.2393C6.6084 18.6768 5.99418 13.6708 9.34171 10.0162L9.46455 9.86261C9.46455 9.86261 9.61811 9.73976 9.67953 9.67834L9.80238 9.52478L9.28028 9.0334L9.95593 9.37123C13.6106 6.0237 18.6472 6.60721 22.179 7.68211C27.4307 9.27909 33.2044 13.0259 38.3946 18.2161C41.6193 21.4408 43.6155 25.4947 44.3219 30.2856C44.9361 34.4009 44.4754 38.2091 43.9841 40.6661C43.7998 41.4953 44.1069 42.3552 44.7519 42.9387L100.739 93.0288V93.0903ZM78.5036 45.1499C77.2751 46.5012 75.5246 47.2997 73.7126 47.3304L64.8985 47.5147C64.2535 47.5147 63.6086 47.8218 63.1172 48.3132L62.0423 49.4802L60.8446 50.8315L58.4491 48.6817L61.0596 46.3476C61.5816 45.887 61.8581 45.2728 61.8888 44.5971L62.073 35.6908C62.1037 33.8789 62.9022 32.1283 64.2535 30.8999L91.8016 5.77801L93.3372 7.34428L69.413 31.2684C68.9524 31.7291 68.7067 32.3433 68.7067 32.9882C68.7067 33.6332 68.9524 34.2474 69.413 34.7081C70.3344 35.6294 71.9314 35.5987 72.8527 34.7081L96.7768 10.7839L98.5274 12.5345L74.6032 36.4586C73.6512 37.4107 73.6512 38.9462 74.6032 39.8983C75.5246 40.8196 77.1216 40.8196 78.0429 39.8983L101.967 15.9742L103.625 17.6326L78.5036 45.1806V45.1499Z" fill="#3B6552"/>
</svg>
