<svg width="111" height="126" viewBox="0 0 111 126" fill="none" xmlns="http://www.w3.org/2000/svg">
<path d="M64.4022 27.2033L70.1759 25.6064C73.0013 24.8386 75.1511 22.5966 75.8268 19.7405C76.5024 16.9151 75.5811 13.9361 73.4006 11.9705L60.9318 0.760904C59.7033 -0.344704 57.8607 -0.221858 56.755 0.975883C55.6494 2.20434 55.7723 4.04701 56.97 5.15262L69.4388 16.3622C70.268 17.0993 70.1452 18.0207 70.053 18.3585C69.9609 18.727 69.6538 19.5869 68.6096 19.8633L62.8359 21.4603C60.0412 22.2281 57.9221 24.3779 57.2157 27.1726C56.5094 29.9981 57.3078 32.8542 59.3962 34.8812L68.4868 43.6339C69.0703 44.1867 69.8074 44.4631 70.5444 44.4631C71.2815 44.4631 72.08 44.156 72.6635 43.5725C73.7998 42.4054 73.7691 40.5321 72.6021 39.3957L63.5115 30.643C62.7437 29.9059 62.8666 29.0153 62.9587 28.6468C63.0509 28.309 63.358 27.449 64.4022 27.1726V27.2033Z" fill="#3B6552"/>
<path d="M43.1198 30.7654C45.9453 29.9976 48.0951 27.7557 48.7707 24.8995C49.4464 22.0741 48.525 19.0951 46.3445 17.1296L38.6974 10.2502C37.469 9.14461 35.6263 9.26746 34.5207 10.4652C33.4151 11.6937 33.5379 13.5363 34.7357 14.6419L42.3828 21.5213C43.212 22.2583 43.0891 23.1797 42.997 23.5175C42.9049 23.886 42.5977 24.746 41.5536 25.0224C38.7588 25.7901 36.6398 27.9399 35.9334 30.7347C35.227 33.5601 36.0255 36.447 38.1139 38.4432L43.3348 43.4799C43.9183 44.0327 44.6554 44.3091 45.3925 44.3091C46.1603 44.3091 46.928 44.002 47.5116 43.4184C48.6479 42.2514 48.6172 40.378 47.4501 39.2417L42.2292 34.205C41.4614 33.468 41.5843 32.5773 41.6764 32.2088C41.7685 31.871 42.0757 31.0111 43.1198 30.7347V30.7654Z" fill="#3B6552"/>
<path d="M89.8613 77.0164C90.0149 76.3408 90.1684 75.6651 90.322 74.9588C91.5197 69.2464 92.2568 62.06 92.2568 52.7545C92.2568 51.1268 90.9362 49.8062 89.3085 49.8062H20.5459C18.9182 49.8062 17.5976 51.1268 17.5976 52.7545C17.5976 54.29 17.5976 55.7642 17.659 57.2076H8.59917C3.86962 57.2076 0 61.0465 0 65.8068V79.3812C0 84.1107 3.83891 87.9803 8.59917 87.9803H23.832C25.3675 91.1129 26.9645 93.6005 28.5001 95.9346C29.9435 98.1765 31.2641 100.203 32.3083 102.507H10.9332C9.18268 102.507 7.67783 103.674 7.24787 105.363C6.81791 107.052 7.58569 108.803 9.12126 109.632L22.1121 116.695C24.2619 117.862 26.7188 118.477 29.1757 118.477H66.275C64.7087 116.695 63.3882 114.699 62.3133 112.549H29.1757C27.7016 112.549 26.2275 112.181 24.9376 111.475L19.256 108.373H60.7163C60.1635 106.469 59.8256 104.503 59.7028 102.445H38.6655C37.3757 98.6065 35.4716 95.6889 33.4753 92.6485C29.0222 85.7999 23.9855 78.122 23.5863 55.7335H86.3602C86.2067 63.6877 85.5003 69.7992 84.3947 74.6516C84.2411 75.3887 84.0569 76.0951 83.8726 76.8014C78.2831 77.2928 73.0622 79.6883 69.0083 83.6808C64.3402 88.2875 61.7605 94.4297 61.7605 101.002C61.7605 114.392 72.6323 125.295 85.9917 125.295C99.3511 125.295 110.223 114.392 110.223 101.002C110.223 94.4297 107.643 88.2875 102.975 83.6808C99.3511 80.1183 94.8058 77.8149 89.892 77.0471L89.8613 77.0164ZM8.56846 82.0224C7.09431 82.0224 5.89657 80.8246 5.89657 79.3505V65.7761C5.89657 64.3019 7.09431 63.1042 8.56846 63.1042H17.9354C18.5189 71.212 19.8088 77.2621 21.4058 81.9916H8.59917L8.56846 82.0224ZM85.961 119.337C75.8569 119.337 67.6263 111.106 67.6263 100.971C67.6263 95.996 69.5611 91.3586 73.1236 87.8575C76.5633 84.4793 81.1393 82.6059 85.961 82.6059C90.7826 82.6059 95.3586 84.4793 98.7983 87.8575C102.33 91.3279 104.296 95.996 104.296 100.971C104.296 111.106 96.065 119.337 85.961 119.337Z" fill="#3B6552"/>
<path d="M94.6172 98.0232H88.9356V89.1477C88.9356 87.52 87.6151 86.1994 85.9874 86.1994C84.3597 86.1994 83.0391 87.52 83.0391 89.1477V100.972C83.0391 102.599 84.3597 103.92 85.9874 103.92H94.6479C96.2756 103.92 97.5962 102.599 97.5962 100.972C97.5962 99.3438 96.2756 98.0232 94.6479 98.0232H94.6172Z" fill="#3B6552"/>
</svg>
